<?xml version="1.0" standalone="no"?>
<!DOCTYPE svg PUBLIC "-//W3C//DTD SVG 20010904//EN"
 "http://www.w3.org/TR/2001/REC-SVG-20010904/DTD/svg10.dtd">
<svg version="1.0" xmlns="http://www.w3.org/2000/svg"
 width="778.000000pt" height="927.000000pt" viewBox="0 0 778.000000 927.000000"
 preserveAspectRatio="xMidYMid meet">

<g transform="translate(0.000000,927.000000) scale(0.100000,-0.100000)"
fill="#000000" stroke="none">
<path d="M100 9261 c0 -5 -8 -12 -17 -14 -16 -4 -16 -5 1 -6 13 -1 17 -6 13
-21 -3 -11 -1 -23 4 -26 5 -3 9 13 9 35 0 23 -2 41 -5 41 -3 0 -5 -4 -5 -9z"/>
<path d="M143 9230 c0 -25 2 -35 4 -22 2 12 2 32 0 45 -2 12 -4 2 -4 -23z"/>
<path d="M463 9230 c10 -75 58 -122 127 -124 47 -1 86 25 113 77 20 38 17 87
-4 87 -7 0 -9 -9 -6 -22 8 -28 -15 -81 -44 -102 -38 -26 -93 -21 -131 13 -26
23 -32 36 -32 70 -1 28 -5 41 -15 41 -10 0 -12 -10 -8 -40z"/>
<path d="M543 9263 c25 -4 27 -8 27 -54 0 -36 4 -49 14 -49 11 0 16 14 18 47
3 44 5 48 33 54 18 4 0 7 -45 6 -41 0 -63 -2 -47 -4z"/>
<path d="M6970 9259 c0 -5 5 -7 10 -4 6 3 10 8 10 11 0 2 -4 4 -10 4 -5 0 -10
-5 -10 -11z"/>
<path d="M7014 9237 c-1 -30 -1 -30 9 -9 6 14 7 26 1 32 -5 5 -9 -4 -10 -23z"/>
<path d="M7055 9260 c-3 -5 -1 -10 4 -10 6 0 11 5 11 10 0 6 -2 10 -4 10 -3 0
-8 -4 -11 -10z"/>
<path d="M323 9253 c-18 -2 -33 -8 -33 -12 0 -4 16 -5 35 -3 19 2 35 8 35 13
0 5 -1 8 -2 7 -2 0 -18 -3 -35 -5z"/>
<path d="M6129 9229 c-25 -33 -67 -97 -57 -89 7 6 71 91 82 108 14 23 -1 12
-25 -19z"/>
<path d="M5960 9236 c0 -2 8 -10 18 -17 15 -13 16 -12 3 4 -13 16 -21 21 -21
13z"/>
<path d="M7059 9204 c-23 -25 -23 -26 -2 -13 13 7 25 19 27 26 8 19 2 16 -25
-13z"/>
<path d="M52 9204 c10 -10 20 -16 22 -13 3 3 -5 11 -17 18 -21 13 -21 12 -5
-5z"/>
<path d="M6005 9180 c10 -11 20 -20 22 -20 2 0 -2 9 -9 20 -7 11 -17 20 -22
20 -5 0 -1 -9 9 -20z"/>
<path d="M7082 9188 c-14 -14 -16 -44 -3 -52 4 -3 6 6 3 19 -3 19 1 27 19 34
14 6 18 10 9 10 -9 1 -21 -4 -28 -11z"/>
<path d="M5421 9166 c2 -2 29 -6 59 -9 34 -3 47 -2 35 3 -19 8 -103 14 -94 6z"/>
<path d="M7150 9135 c-47 -48 -34 -52 15 -4 22 21 35 39 29 39 -5 0 -25 -16
-44 -35z"/>
<path d="M5379 9143 c-13 -17 -13 -17 6 -3 11 8 22 16 24 17 2 2 0 3 -6 3 -6
0 -17 -8 -24 -17z"/>
<path d="M5535 9130 c3 -5 8 -10 11 -10 2 0 4 5 4 10 0 6 -5 10 -11 10 -5 0
-7 -4 -4 -10z"/>
<path d="M3279 9105 c-2 -82 -1 -106 4 -112 4 -3 7 26 7 65 0 40 -2 72 -5 72
-3 0 -5 -11 -6 -25z"/>
<path d="M6041 9118 c-1 -23 15 -32 23 -12 3 8 2 13 -3 9 -5 -3 -12 1 -14 7
-4 8 -6 7 -6 -4z"/>
<path d="M2293 9113 c9 -2 23 -2 30 0 6 3 -1 5 -18 5 -16 0 -22 -2 -12 -5z"/>
<path d="M5423 9080 c0 -25 2 -35 4 -22 2 12 2 32 0 45 -2 12 -4 2 -4 -23z"/>
<path d="M5480 9112 c0 -4 5 -13 12 -20 6 -6 8 -15 4 -19 -4 -4 -11 -2 -15 6
-6 10 -10 9 -15 -4 -8 -23 -9 -23 19 -17 16 3 25 0 25 -9 0 -7 3 -10 6 -7 6 6
-22 78 -30 78 -4 0 -6 -4 -6 -8z"/>
<path d="M7183 9113 c4 -3 -3 -18 -15 -32 l-23 -26 27 24 c24 21 29 41 11 41
-4 0 -3 -3 0 -7z"/>
<path d="M5552 9080 c0 -19 2 -27 5 -17 2 9 2 25 0 35 -3 9 -5 1 -5 -18z"/>
<path d="M5351 9084 c0 -11 3 -14 6 -6 3 7 2 16 -1 19 -3 4 -6 -2 -5 -13z"/>
<path d="M2759 9073 c-13 -16 -12 -17 4 -4 9 7 17 15 17 17 0 8 -8 3 -21 -13z"/>
<path d="M2932 9065 c0 -16 2 -22 5 -12 2 9 2 23 0 30 -3 6 -5 -1 -5 -18z"/>
<path d="M2960 9086 c0 -2 7 -7 16 -10 8 -3 12 -2 9 4 -6 10 -25 14 -25 6z"/>
<path d="M3060 9086 c0 -2 7 -7 16 -10 8 -3 12 -2 9 4 -6 10 -25 14 -25 6z"/>
<path d="M3230 9075 c-19 -22 -8 -25 13 -3 9 10 13 18 8 18 -5 0 -14 -7 -21
-15z"/>
<path d="M7199 9063 l-24 -26 27 19 c15 10 28 22 28 27 0 12 -5 8 -31 -20z"/>
<path d="M2310 9060 l-35 -7 32 -2 c17 0 35 4 38 9 3 6 5 9 3 9 -2 -1 -19 -5
-38 -9z"/>
<path d="M2490 9061 c0 -10 19 -25 25 -20 1 2 -3 10 -11 17 -8 7 -14 8 -14 3z"/>
<path d="M2452 9040 c0 -14 2 -19 5 -12 2 6 2 18 0 25 -3 6 -5 1 -5 -13z"/>
<path d="M2830 9035 c0 -12 3 -16 8 -8 4 6 21 13 37 15 29 3 29 4 -7 9 -33 4
-38 2 -38 -16z"/>
<path d="M6143 8990 c0 -41 2 -58 4 -37 2 20 2 54 0 75 -2 20 -4 3 -4 -38z"/>
<path d="M7237 9039 c-4 -16 -3 -18 9 -8 7 6 11 15 8 20 -8 13 -11 11 -17 -12z"/>
<path d="M2580 9033 c0 -12 3 -14 8 -6 4 6 21 13 37 16 27 4 27 4 -7 6 -30 1
-38 -3 -38 -16z"/>
<path d="M3126 9042 c-2 -4 11 -6 30 -4 19 2 34 6 34 8 0 8 -59 4 -64 -4z"/>
<path d="M5790 9038 c0 -9 7 -19 16 -22 15 -6 15 -4 3 11 -7 10 -15 20 -16 22
-2 2 -3 -3 -3 -11z"/>
<path d="M5872 9002 c-1 -36 -6 -51 -13 -46 -6 3 -5 -4 3 -17 13 -24 13 -23
16 14 2 20 1 52 -1 70 -2 21 -4 14 -5 -21z"/>
<path d="M6290 9041 c0 -4 11 -6 25 -3 14 2 25 6 25 8 0 2 -11 4 -25 4 -14 0
-25 -4 -25 -9z"/>
<path d="M5529 9023 c-13 -16 -12 -17 4 -4 9 7 17 15 17 17 0 8 -8 3 -21 -13z"/>
<path d="M6089 9028 c-3 -7 -2 -31 1 -53 l6 -40 5 43 c5 42 -4 77 -12 50z"/>
<path d="M7262 9003 c-30 -33 -23 -40 8 -8 13 14 21 27 19 29 -2 3 -14 -7 -27
-21z"/>
<path d="M3232 9004 c10 -10 20 -16 22 -13 3 3 -5 11 -17 18 -21 13 -21 12 -5
-5z"/>
<path d="M3345 9010 c3 -5 8 -10 11 -10 2 0 4 5 4 10 0 6 -5 10 -11 10 -5 0
-7 -4 -4 -10z"/>
<path d="M5397 9009 c7 -7 15 -10 18 -7 3 3 -2 9 -12 12 -14 6 -15 5 -6 -5z"/>
<path d="M6493 8970 c0 -30 2 -43 4 -27 2 15 2 39 0 55 -2 15 -4 2 -4 -28z"/>
<path d="M6593 8970 c0 -30 2 -43 4 -27 2 15 2 39 0 55 -2 15 -4 2 -4 -28z"/>
<path d="M6785 9010 c4 -6 11 -8 16 -5 14 9 11 15 -7 15 -8 0 -12 -5 -9 -10z"/>
<path d="M5911 8974 c0 -11 3 -14 6 -6 3 7 2 16 -1 19 -3 4 -6 -2 -5 -13z"/>
<path d="M6303 8983 c9 -2 23 -2 30 0 6 3 -1 5 -18 5 -16 0 -22 -2 -12 -5z"/>
<path d="M6720 8980 l-35 -7 38 -2 c20 0 37 4 37 9 0 6 -1 9 -2 9 -2 -1 -19
-5 -38 -9z"/>
<path d="M7282 8978 c-7 -7 -12 -19 -11 -27 0 -10 4 -7 9 7 10 25 29 28 50 10
12 -11 12 -10 1 5 -16 20 -32 22 -49 5z"/>
<path d="M6413 8973 c9 -2 25 -2 35 0 9 3 1 5 -18 5 -19 0 -27 -2 -17 -5z"/>
<path d="M7320 8935 c-8 -9 -8 -15 -2 -15 12 0 26 19 19 26 -2 2 -10 -2 -17
-11z"/>
<path d="M6303 8923 c9 -2 23 -2 30 0 6 3 -1 5 -18 5 -16 0 -22 -2 -12 -5z"/>
<path d="M7344 8908 l-19 -21 28 18 c28 18 33 25 19 25 -5 0 -17 -10 -28 -22z"/>
<path d="M7391 8901 c-1 -8 -9 -24 -18 -35 -16 -20 -16 -20 6 0 13 12 21 28
18 35 -4 11 -6 11 -6 0z"/>
<path d="M2580 8884 c0 -8 5 -12 10 -9 6 4 8 11 5 16 -9 14 -15 11 -15 -7z"/>
<path d="M2831 8884 c0 -11 3 -14 6 -6 3 7 2 16 -1 19 -3 4 -6 -2 -5 -13z"/>
<path d="M2860 8896 c0 -2 7 -7 16 -10 8 -3 12 -2 9 4 -6 10 -25 14 -25 6z"/>
<path d="M3103 8889 c9 -5 17 -14 17 -19 0 -5 -8 -11 -17 -13 -16 -4 -16 -5 1
-6 13 -1 17 -6 13 -21 -3 -11 -1 -23 4 -26 5 -3 9 12 9 33 0 38 -14 63 -34 63
-6 0 -3 -5 7 -11z"/>
<path d="M2975 8880 c-3 -5 -1 -10 4 -10 6 0 11 5 11 10 0 6 -2 10 -4 10 -3 0
-8 -4 -11 -10z"/>
<path d="M2670 8860 l-35 -7 38 -2 c20 0 37 4 37 9 0 6 -1 9 -2 9 -2 -1 -19
-5 -38 -9z"/>
<path d="M7402 8858 c-16 -16 -15 -43 2 -57 10 -8 16 -9 21 -1 4 6 1 9 -7 8
-7 -2 -14 7 -16 20 -2 16 3 25 20 31 14 6 17 10 8 10 -9 1 -21 -4 -28 -11z"/>
<path d="M2518 8853 c7 -3 16 -2 19 1 4 3 -2 6 -13 5 -11 0 -14 -3 -6 -6z"/>
<path d="M2581 8844 c0 -11 3 -14 6 -6 3 7 2 16 -1 19 -3 4 -6 -2 -5 -13z"/>
<path d="M2730 8843 c0 -12 3 -14 8 -6 4 6 21 13 37 16 27 4 27 4 -7 6 -30 1
-38 -3 -38 -16z"/>
<path d="M5899 8839 c-2 -34 3 -95 9 -101 4 -4 6 18 5 48 -1 50 -12 89 -14 53z"/>
<path d="M7451 8834 c0 -11 3 -14 6 -6 3 7 2 16 -1 19 -3 4 -6 -2 -5 -13z"/>
<path d="M3060 8831 c0 -10 29 -36 34 -30 1 2 -6 12 -16 22 -10 9 -18 13 -18
8z"/>
<path d="M3176 8827 c3 -10 9 -15 12 -12 3 3 0 11 -7 18 -10 9 -11 8 -5 -6z"/>
<path d="M2652 8814 c10 -10 20 -16 22 -13 3 3 -5 11 -17 18 -21 13 -21 12 -5
-5z"/>
<path d="M5950 8780 c0 -29 2 -51 4 -49 8 8 10 88 3 95 -4 4 -7 -17 -7 -46z"/>
<path d="M6198 8823 c6 -2 18 -2 25 0 6 3 1 5 -13 5 -14 0 -19 -2 -12 -5z"/>
<path d="M5799 8806 c11 -12 51 -29 51 -21 0 2 -14 10 -31 19 -23 12 -28 12
-20 2z"/>
<path d="M2498 8803 c7 -3 16 -2 19 1 4 3 -2 6 -13 5 -11 0 -14 -3 -6 -6z"/>
<path d="M6040 8790 l-35 -7 38 -2 c20 0 37 4 37 9 0 6 -1 9 -2 9 -2 -1 -19
-5 -38 -9z"/>
<path d="M7515 8788 c-2 -7 0 -29 5 -48 9 -34 10 -34 5 8 -4 33 -2 42 10 42 9
0 20 -10 25 -22 5 -14 9 -17 9 -7 2 31 -44 54 -54 27z"/>
<path d="M6123 8783 c9 -2 25 -2 35 0 9 3 1 5 -18 5 -19 0 -27 -2 -17 -5z"/>
<path d="M7471 8749 c-1 -9 7 -23 17 -30 15 -12 16 -12 6 1 -6 8 -14 22 -17
30 -5 13 -6 12 -6 -1z"/>
<path d="M2468 8723 c7 -3 16 -2 19 1 4 3 -2 6 -13 5 -11 0 -14 -3 -6 -6z"/>
<path d="M7552 8705 c-12 -14 -22 -28 -22 -31 0 -8 59 40 59 49 2 15 -16 6
-37 -18z"/>
<path d="M1858 8693 c7 -3 16 -2 19 1 4 3 -2 6 -13 5 -11 0 -14 -3 -6 -6z"/>
<path d="M2118 8693 c7 -3 16 -2 19 1 4 3 -2 6 -13 5 -11 0 -14 -3 -6 -6z"/>
<path d="M2793 8693 c9 -2 23 -2 30 0 6 3 -1 5 -18 5 -16 0 -22 -2 -12 -5z"/>
<path d="M3028 8693 c7 -3 16 -2 19 1 4 3 -2 6 -13 5 -11 0 -14 -3 -6 -6z"/>
<path d="M3838 8693 c7 -3 16 -2 19 1 4 3 -2 6 -13 5 -11 0 -14 -3 -6 -6z"/>
<path d="M128 8319 c-23 -13 -25 -110 -4 -128 9 -7 40 -11 78 -9 l63 3 3 58
c2 35 -2 64 -9 73 -13 16 -105 19 -131 3z m96 -15 c11 -4 16 -19 16 -48 0 -24
-2 -45 -4 -47 -3 -3 -23 -3 -45 -1 -41 4 -41 4 -41 46 0 24 3 46 7 49 8 9 46
9 67 1z"/>
<path d="M173 8273 c9 -2 25 -2 35 0 9 3 1 5 -18 5 -19 0 -27 -2 -17 -5z"/>
<path d="M1469 8093 c-13 -16 -12 -17 4 -4 9 7 17 15 17 17 0 8 -8 3 -21 -13z"/>
<path d="M2628 8099 c-14 -8 -18 -23 -18 -68 0 -74 10 -83 92 -79 l63 3 3 63
c2 38 -2 69 -9 78 -13 16 -105 19 -131 3z m100 -18 c9 -5 12 -24 10 -52 l-3
-44 -42 -3 -43 -3 0 50 c0 30 5 51 13 54 19 8 51 7 65 -2z"/>
<path d="M2660 8050 c0 -5 14 -10 30 -10 17 0 30 5 30 10 0 6 -13 10 -30 10
-16 0 -30 -4 -30 -10z"/>
<path d="M6705 7978 c-24 -23 -36 -45 -40 -73 l-5 -40 15 47 c19 60 55 88 109
88 50 0 83 -21 101 -64 19 -46 6 -91 -48 -165 -26 -35 -47 -71 -48 -80 0 -9
-7 -1 -15 17 -8 19 -26 46 -40 60 -14 15 -32 42 -41 61 -9 19 -19 29 -21 23
-2 -7 17 -40 43 -75 25 -34 49 -74 52 -89 8 -39 19 -35 41 15 11 23 33 59 50
80 63 78 63 149 1 202 -46 38 -108 35 -154 -7z"/>
<path d="M643 7743 c-34 -23 -24 -93 12 -93 22 0 18 17 -5 23 -27 7 -25 32 5
55 33 26 65 18 65 -16 0 -20 3 -23 11 -15 9 9 8 18 -5 37 -19 30 -50 33 -83 9z"/>
<path d="M1030 7731 c-15 -29 -13 -116 4 -130 9 -7 40 -11 78 -9 l63 3 3 63
c4 82 -5 92 -79 92 -47 0 -60 -4 -69 -19z m108 -10 c9 -5 12 -24 10 -52 l-3
-44 -42 -3 -43 -3 0 50 c0 30 5 51 13 54 19 8 51 7 65 -2z"/>
<path d="M1070 7690 c0 -5 14 -10 30 -10 17 0 30 5 30 10 0 6 -13 10 -30 10
-16 0 -30 -4 -30 -10z"/>
<path d="M7490 7733 c0 -10 49 -33 69 -33 8 0 -2 9 -24 20 -44 23 -45 23 -45
13z"/>
<path d="M7445 7700 c-3 -6 1 -7 9 -4 18 7 21 14 7 14 -6 0 -13 -4 -16 -10z"/>
<path d="M7482 7673 c-18 -13 -25 -13 -37 -3 -13 11 -14 10 -9 -4 8 -20 24
-20 50 -1 29 22 47 19 41 -6 -4 -16 -3 -19 5 -11 13 13 3 42 -14 41 -7 0 -23
-7 -36 -16z"/>
<path d="M690 7640 c-25 -25 -25 -32 0 -55 18 -17 21 -17 45 -1 27 18 32 45
13 64 -17 17 -35 15 -58 -8z m60 -14 c0 -17 -21 -36 -41 -36 -28 0 -32 17 -10
39 21 21 51 19 51 -3z"/>
<path d="M7498 7623 c7 -3 16 -2 19 1 4 3 -2 6 -13 5 -11 0 -14 -3 -6 -6z"/>
<path d="M6193 7613 c9 -2 23 -2 30 0 6 3 -1 5 -18 5 -16 0 -22 -2 -12 -5z"/>
<path d="M2313 7540 c0 -41 2 -58 4 -37 2 20 2 54 0 75 -2 20 -4 3 -4 -38z"/>
<path d="M1380 7535 c0 -59 2 -65 21 -65 30 0 59 18 59 38 0 13 -3 12 -16 -6
-8 -12 -24 -22 -35 -22 -15 0 -19 7 -19 31 0 29 2 31 28 26 19 -4 29 -2 29 7
0 8 -11 11 -29 8 -23 -4 -28 -1 -28 17 0 24 28 29 48 9 8 -8 12 -8 12 -1 0 13
-23 23 -51 23 -17 0 -19 -8 -19 -65z"/>
<path d="M1991 7533 c1 -47 3 -59 8 -38 4 22 13 31 31 33 14 2 28 7 32 11 5 4
-8 5 -27 3 -30 -4 -35 -1 -35 17 0 13 9 25 23 31 21 8 21 9 -5 9 -28 1 -28 1
-27 -66z"/>
<path d="M2542 7533 c2 -64 2 -65 5 -15 2 29 8 50 13 47 4 -3 6 4 3 15 -11 43
-23 17 -21 -47z"/>
<path d="M2636 7585 c-3 -8 -1 -15 4 -15 5 0 11 -24 13 -52 3 -50 3 -49 5 15
2 62 -8 87 -22 52z"/>
<path d="M765 7574 c-11 -8 -27 -19 -35 -24 -8 -5 -12 -11 -9 -15 9 -9 80 35
73 46 -6 11 -5 11 -29 -7z"/>
<path d="M1689 7578 c-3 -41 4 -85 17 -96 9 -8 10 -8 4 0 -12 15 -13 75 -1 80
5 2 3 9 -5 16 -11 10 -14 10 -15 0z"/>
<path d="M2055 7580 c3 -5 8 -10 11 -10 2 0 4 5 4 10 0 6 -5 10 -11 10 -5 0
-7 -4 -4 -10z"/>
<path d="M3048 7579 c-8 -25 8 -103 22 -107 12 -4 13 -2 3 9 -15 15 -17 76 -4
81 5 2 3 8 -4 15 -9 8 -15 9 -17 2z"/>
<path d="M5758 7583 c6 -2 18 -2 25 0 6 3 1 5 -13 5 -14 0 -19 -2 -12 -5z"/>
<path d="M5820 7540 c0 -29 2 -51 4 -49 8 8 10 88 3 95 -4 4 -7 -17 -7 -46z"/>
<path d="M6068 7583 c6 -2 18 -2 25 0 6 3 1 5 -13 5 -14 0 -19 -2 -12 -5z"/>
<path d="M6583 7540 c0 -30 2 -43 4 -27 2 15 2 39 0 55 -2 15 -4 2 -4 -28z"/>
<path d="M6689 7573 c-13 -17 -13 -17 6 -3 11 8 22 16 24 17 2 2 0 3 -6 3 -6
0 -17 -8 -24 -17z"/>
<path d="M7028 7583 c7 -3 16 -2 19 1 4 3 -2 6 -13 5 -11 0 -14 -3 -6 -6z"/>
<path d="M7407 7583 c-3 -5 5 -8 18 -8 13 0 21 3 18 8 -2 4 -10 7 -18 7 -8 0
-16 -3 -18 -7z"/>
<path d="M5669 7566 c11 -12 51 -29 51 -21 0 2 -14 10 -31 19 -23 12 -28 12
-20 2z"/>
<path d="M1602 7558 c-18 -18 -15 -26 18 -43 17 -9 30 -11 30 -6 0 5 -11 12
-25 15 -29 7 -32 21 -7 35 9 6 12 11 7 11 -6 0 -16 -5 -23 -12z"/>
<path d="M1788 7552 c9 -10 19 -17 21 -16 6 5 -20 34 -30 34 -5 0 -1 -8 9 -18z"/>
<path d="M1888 7558 c6 -7 12 -31 15 -53 l4 -40 1 46 c2 35 -2 48 -14 53 -13
5 -14 3 -6 -6z"/>
<path d="M2158 7524 c-2 -25 0 -48 4 -50 5 -3 8 18 8 45 0 64 -7 66 -12 5z"/>
<path d="M2240 7566 c0 -2 7 -9 15 -16 9 -7 15 -8 15 -2 0 5 -7 12 -15 16 -8
3 -15 4 -15 2z"/>
<path d="M2353 7520 c0 -30 2 -43 4 -27 2 15 2 39 0 55 -2 15 -4 2 -4 -28z"/>
<path d="M2412 7558 c-7 -7 -12 -17 -12 -22 0 -6 5 -3 11 7 7 12 17 16 32 12
17 -5 19 -4 7 4 -19 14 -23 14 -38 -1z"/>
<path d="M2733 7559 c9 -5 17 -14 17 -19 0 -5 -8 -11 -17 -13 -17 -4 -17 -5 0
-6 21 -1 23 -27 1 -35 -22 -8 -37 3 -29 23 5 13 4 14 -6 4 -17 -17 3 -38 36
-38 22 -1 25 3 25 35 0 36 -14 60 -34 60 -6 0 -3 -5 7 -11z"/>
<path d="M2792 7515 c1 -50 2 -50 5 -7 3 28 9 42 19 42 8 0 14 4 14 8 0 4 -9
8 -20 8 -18 0 -20 -6 -18 -51z"/>
<path d="M2888 7545 c-30 -25 -37 -48 -14 -39 8 3 21 -5 30 -18 21 -30 21 -15
0 18 -16 23 -15 26 1 44 24 27 16 25 -17 -5z"/>
<path d="M2987 7559 c7 -7 15 -10 18 -7 3 3 -2 9 -12 12 -14 6 -15 5 -6 -5z"/>
<path d="M800 7542 c0 -10 -11 -25 -25 -32 -24 -13 -34 -30 -16 -30 18 0 61
49 55 64 -8 21 -14 20 -14 -2z"/>
<path d="M1495 7549 c-4 -6 -5 -12 -2 -15 2 -3 7 2 10 11 7 17 1 20 -8 4z"/>
<path d="M1545 7520 c0 -21 3 -36 8 -33 4 2 7 17 7 33 0 16 -3 31 -7 33 -5 3
-8 -12 -8 -33z"/>
<path d="M1747 7553 c-16 -16 -6 -63 16 -73 21 -10 21 -10 3 4 -13 11 -17 24
-14 45 5 33 5 34 -5 24z"/>
<path d="M1850 7549 c0 -5 5 -7 10 -4 6 3 10 8 10 11 0 2 -4 4 -10 4 -5 0 -10
-5 -10 -11z"/>
<path d="M2210 7549 c0 -5 5 -7 10 -4 6 3 10 8 10 11 0 2 -4 4 -10 4 -5 0 -10
-5 -10 -11z"/>
<path d="M2957 7553 c-4 -3 -7 -19 -7 -34 0 -34 35 -59 54 -38 8 9 8 10 -1 5
-16 -9 -43 3 -43 20 0 9 11 14 30 14 17 0 30 4 30 8 0 5 -14 6 -32 4 -26 -4
-30 -2 -25 12 7 17 5 20 -6 9z"/>
<path d="M5910 7550 l-35 -7 38 -2 c20 0 37 4 37 9 0 6 -1 9 -2 9 -2 -1 -19
-5 -38 -9z"/>
<path d="M7394 7551 c7 -11 46 -35 46 -28 0 3 -12 12 -26 22 -15 9 -23 12 -20
6z"/>
<path d="M5993 7543 c9 -2 25 -2 35 0 9 3 1 5 -18 5 -19 0 -27 -2 -17 -5z"/>
<path d="M6193 7543 c9 -2 25 -2 35 0 9 3 1 5 -18 5 -19 0 -27 -2 -17 -5z"/>
<path d="M6318 7543 c6 -2 18 -2 25 0 6 3 1 5 -13 5 -14 0 -19 -2 -12 -5z"/>
<path d="M2580 7513 c0 -15 18 -35 23 -27 3 5 -1 15 -9 22 -8 7 -14 9 -14 5z"/>
<path d="M6335 7510 c-3 -5 -1 -10 4 -10 6 0 11 5 11 10 0 6 -2 10 -4 10 -3 0
-8 -4 -11 -10z"/>
<path d="M7393 7509 c9 -5 17 -17 17 -25 0 -21 -27 -29 -48 -13 -15 13 -16 12
-3 -3 16 -22 35 -23 51 -3 15 18 3 55 -18 55 -16 -1 -15 -2 1 -11z"/>
<path d="M1490 7501 c0 -10 29 -36 34 -30 1 2 -6 12 -16 22 -10 9 -18 13 -18
8z"/>
<path d="M1796 7493 c-6 -14 -5 -15 5 -6 7 7 10 15 7 18 -3 3 -9 -2 -12 -12z"/>
<path d="M2400 7504 c0 -22 27 -36 47 -24 16 10 16 10 -4 5 -15 -4 -25 0 -32
12 -6 10 -11 13 -11 7z"/>
<path d="M6297 7499 c7 -7 15 -10 18 -7 3 3 -2 9 -12 12 -14 6 -15 5 -6 -5z"/>
<path d="M1590 7491 c0 -9 30 -24 36 -18 2 1 -6 8 -16 15 -11 7 -20 8 -20 3z"/>
<path d="M2110 7492 c0 -12 19 -26 26 -19 2 2 -2 10 -11 17 -9 8 -15 8 -15 2z"/>
<path d="M2250 7485 c-11 -13 -10 -14 4 -9 9 3 16 10 16 15 0 13 -6 11 -20 -6z"/>
<path d="M6848 7493 c12 -2 30 -2 40 0 9 3 -1 5 -23 4 -22 0 -30 -2 -17 -4z"/>
<path d="M812 7483 c-22 -9 -35 -43 -21 -59 18 -22 2 -30 -21 -9 -21 19 -28 7
-8 -13 18 -18 40 -15 80 13 34 23 36 27 26 50 -11 24 -28 29 -56 18z m48 -29
c0 -13 -30 -34 -49 -34 -17 0 -13 38 6 48 21 12 43 5 43 -14z"/>
<path d="M7300 7443 c0 -10 49 -33 69 -33 8 0 -2 9 -24 20 -44 23 -45 23 -45
13z"/>
<path d="M875 7413 c-11 -8 -27 -18 -35 -23 -8 -5 -12 -12 -7 -16 4 -4 16 1
26 10 14 12 27 16 43 10 21 -6 22 -6 8 12 -8 10 -14 20 -15 21 0 1 -9 -5 -20
-14z"/>
<path d="M7261 7427 c2 -1 13 -9 24 -17 19 -14 19 -14 6 3 -7 9 -18 17 -24 17
-6 0 -8 -1 -6 -3z"/>
<path d="M4093 7366 c-33 -30 -37 -39 -37 -83 0 -45 6 -58 48 -114 26 -35 50
-76 53 -91 8 -39 19 -35 41 15 11 24 33 59 49 78 63 72 64 151 2 204 -47 39
-108 35 -156 -9z m66 12 c11 -10 13 -10 7 0 -9 16 27 16 57 1 39 -22 56 -52
57 -101 0 -27 -4 -48 -9 -48 -5 0 -14 -14 -21 -30 -7 -17 -19 -34 -26 -38 -7
-4 -22 -27 -33 -52 -11 -25 -21 -39 -22 -32 -3 23 -4 27 -22 53 -20 30 -13 63
12 54 13 -5 14 -4 3 7 -11 11 -16 10 -26 -4 -16 -22 -26 -23 -26 -2 0 8 -4 13
-9 10 -8 -5 -20 18 -26 49 -1 6 -5 17 -9 27 -9 19 17 75 47 101 24 20 29 21
46 5z"/>
<path d="M4115 7220 c-3 -6 1 -7 9 -4 18 7 21 14 7 14 -6 0 -13 -4 -16 -10z"/>
<path d="M7310 7396 c0 -3 9 -10 20 -16 11 -6 20 -8 20 -6 0 3 -9 10 -20 16
-11 6 -20 8 -20 6z"/>
<path d="M2128 7383 c7 -3 16 -2 19 1 4 3 -2 6 -13 5 -11 0 -14 -3 -6 -6z"/>
<path d="M3438 7383 c7 -3 16 -2 19 1 4 3 -2 6 -13 5 -11 0 -14 -3 -6 -6z"/>
<path d="M7290 7378 c0 -2 9 -11 20 -21 11 -9 20 -13 20 -7 0 5 -9 14 -20 20
-11 6 -20 9 -20 8z"/>
<path d="M1393 7363 c9 -2 25 -2 35 0 9 3 1 5 -18 5 -19 0 -27 -2 -17 -5z"/>
<path d="M892 7340 c-12 -12 -22 -24 -22 -28 0 -16 29 -47 36 -39 4 4 2 7 -4
7 -14 0 -16 36 -4 44 5 3 15 -6 22 -20 16 -29 34 -27 38 6 3 15 -3 29 -14 37
-23 17 -26 17 -52 -7z m58 -21 c0 -24 -23 -21 -28 4 -2 10 3 17 12 17 10 0 16
-9 16 -21z"/>
<path d="M1643 7353 c9 -2 23 -2 30 0 6 3 -1 5 -18 5 -16 0 -22 -2 -12 -5z"/>
<path d="M1888 7353 c7 -3 16 -2 19 1 4 3 -2 6 -13 5 -11 0 -14 -3 -6 -6z"/>
<path d="M2063 7353 c9 -2 23 -2 30 0 6 3 -1 5 -18 5 -16 0 -22 -2 -12 -5z"/>
<path d="M2628 7353 c7 -3 16 -2 19 1 4 3 -2 6 -13 5 -11 0 -14 -3 -6 -6z"/>
<path d="M3293 7353 c9 -2 23 -2 30 0 6 3 -1 5 -18 5 -16 0 -22 -2 -12 -5z"/>
<path d="M7265 7327 c22 -18 41 -21 49 -9 2 4 -3 8 -12 8 -9 1 -26 5 -37 9
l-20 8 20 -16z"/>
<path d="M7187 7303 c-4 -3 -7 -10 -7 -14 0 -10 72 -60 78 -55 6 6 -32 41 -52
49 -9 4 -14 11 -11 17 7 11 2 13 -8 3z"/>
<path d="M960 7244 c0 -24 -4 -34 -12 -31 -7 2 -12 12 -12 21 1 9 -2 16 -7 16
-14 0 -10 -26 6 -40 25 -21 48 -4 40 30 -8 36 11 42 25 8 5 -13 9 -18 9 -11 2
24 -12 43 -30 43 -15 0 -19 -7 -19 -36z"/>
<path d="M1014 7195 c-3 -8 -4 -21 -1 -28 7 -19 -8 -41 -23 -32 -6 4 -9 13 -6
21 3 8 1 14 -4 14 -15 0 -12 -26 5 -40 25 -21 48 -4 40 30 -5 23 -3 30 9 30 8
0 17 -10 19 -22 l4 -23 2 22 c1 28 -36 52 -45 28z"/>
<path d="M1113 7103 c-8 -3 -13 -23 -13 -50 0 -37 -3 -44 -17 -41 -11 2 -19
14 -21 32 -3 20 -6 25 -12 16 -13 -21 10 -60 37 -60 24 0 26 6 23 53 -1 17 4
29 15 33 21 8 34 -11 27 -40 -4 -16 -2 -18 8 -10 25 24 -15 79 -47 67z"/>
<path d="M1139 7001 c-9 -9 -24 -21 -35 -27 -11 -7 -15 -15 -10 -20 5 -5 11
-4 13 3 2 7 20 15 38 19 19 3 36 12 39 19 7 19 -27 24 -45 6z"/>
<path d="M3097 6857 c-3 -8 -1 -20 4 -28 6 -10 9 -7 9 14 0 29 -5 35 -13 14z"/>
<path d="M3102 6790 c0 -14 2 -19 5 -12 2 6 2 18 0 25 -3 6 -5 1 -5 -13z"/>
<path d="M3188 6803 c6 -2 18 -2 25 0 6 3 1 5 -13 5 -14 0 -19 -2 -12 -5z"/>
<path d="M3788 6803 c6 -2 18 -2 25 0 6 3 1 5 -13 5 -14 0 -19 -2 -12 -5z"/>
<path d="M6235 6700 c-4 -6 -20 -10 -36 -8 -16 1 -30 -2 -31 -7 -4 -14 65 -14
74 -1 6 8 8 8 8 0 0 -7 17 -12 40 -12 26 -1 40 4 40 12 0 8 -10 11 -30 8 -17
-2 -36 1 -44 7 -10 9 -16 9 -21 1z"/>
<path d="M6150 6640 c0 -52 58 -130 96 -130 7 0 29 14 49 31 30 27 35 37 35
75 l0 44 -90 0 c-84 0 -90 -1 -90 -20z m86 -15 c11 -27 -5 -65 -27 -65 -11 0
-17 4 -14 10 4 6 1 17 -5 25 -7 8 -10 22 -6 30 7 19 45 19 52 0z m69 -25 c0
-31 -3 -35 -27 -38 -21 -3 -28 1 -28 13 0 12 5 15 16 11 14 -5 15 -4 5 8 -9
11 -9 15 1 19 8 4 7 6 -4 6 -10 1 -18 6 -18 12 0 6 12 9 28 7 24 -3 27 -7 27
-38z"/>
<path d="M6205 6610 c3 -5 8 -10 11 -10 2 0 4 5 4 10 0 6 -5 10 -11 10 -5 0
-7 -4 -4 -10z"/>
<path d="M2378 6623 c6 -2 18 -2 25 0 6 3 1 5 -13 5 -14 0 -19 -2 -12 -5z"/>
<path d="M2468 6623 c7 -3 16 -2 19 1 4 3 -2 6 -13 5 -11 0 -14 -3 -6 -6z"/>
<path d="M2251 5974 c0 -11 3 -14 6 -6 3 7 2 16 -1 19 -3 4 -6 -2 -5 -13z"/>
<path d="M2157 5973 c19 -4 23 -12 26 -66 l3 -62 2 62 c2 55 4 62 25 66 12 2
0 4 -28 4 -27 0 -40 -2 -28 -4z"/>
<path d="M2500 5972 c0 -4 12 -8 28 -7 21 0 28 -5 30 -22 3 -19 -1 -23 -22
-23 -15 0 -26 7 -29 18 -3 9 -5 -7 -6 -35 -1 -52 0 -53 27 -52 23 2 24 2 5 6
-17 3 -23 11 -23 30 0 22 4 25 28 21 25 -4 28 -1 30 26 2 16 -3 33 -10 38 -17
10 -58 10 -58 0z"/>
<path d="M3351 5958 c1 -18 2 -19 6 -5 7 27 47 18 51 -12 3 -21 1 -23 -27 -19
-26 4 -31 1 -31 -16 0 -16 2 -18 9 -7 5 8 19 12 33 9 21 -4 24 0 26 25 3 33
-11 47 -45 47 -18 0 -23 -5 -22 -22z"/>
<path d="M2250 5940 c0 -5 5 -10 11 -10 5 0 7 5 4 10 -3 6 -8 10 -11 10 -2 0
-4 -4 -4 -10z"/>
<path d="M2296 5943 c6 -4 14 -15 17 -23 5 -11 6 -9 4 4 -1 11 -9 21 -17 23
-10 3 -11 2 -4 -4z"/>
<path d="M2715 5940 c-3 -6 1 -7 10 -4 8 4 23 0 33 -7 15 -13 16 -12 3 4 -15
19 -36 22 -46 7z"/>
<path d="M2796 5942 c6 -4 13 -14 16 -22 3 -10 6 -8 10 8 5 18 2 22 -15 22
-13 0 -17 -3 -11 -8z"/>
<path d="M2960 5900 c0 -29 2 -51 4 -49 8 8 10 88 3 95 -4 4 -7 -17 -7 -46z"/>
<path d="M2990 5946 c0 -2 7 -7 16 -10 8 -3 12 -2 9 4 -6 10 -25 14 -25 6z"/>
<path d="M3063 5900 c0 -30 2 -43 4 -27 2 15 2 39 0 55 -2 15 -4 2 -4 -28z"/>
<path d="M3143 5939 c23 -13 22 -29 -2 -29 -28 0 -47 -26 -31 -45 7 -8 17 -15
23 -15 6 0 3 6 -8 13 -21 16 -12 37 17 37 15 0 19 -5 15 -20 -3 -11 -1 -23 4
-26 5 -3 9 12 9 33 0 38 -14 63 -34 63 -6 0 -3 -5 7 -11z"/>
<path d="M3200 5900 c0 -29 2 -51 4 -49 8 8 10 88 3 95 -4 4 -7 -17 -7 -46z"/>
<path d="M3243 5939 c11 -7 18 -24 19 -52 l1 -42 4 38 c4 38 -9 67 -31 67 -6
0 -3 -5 7 -11z"/>
<path d="M3648 5943 c6 -2 12 -22 12 -43 0 -21 3 -41 8 -43 4 -3 7 17 7 44 0
43 -3 49 -20 48 -11 0 -14 -3 -7 -6z"/>
<path d="M3719 5933 c-13 -15 -12 -15 9 -2 21 13 25 12 38 -5 8 -11 14 -15 14
-10 0 14 -21 34 -36 34 -6 0 -18 -7 -25 -17z"/>
<path d="M3810 5900 c0 -29 2 -51 4 -49 8 8 10 88 3 95 -4 4 -7 -17 -7 -46z"/>
<path d="M3853 5939 c11 -7 18 -24 19 -52 l1 -42 4 38 c4 38 -9 67 -31 67 -6
0 -3 -5 7 -11z"/>
<path d="M3456 5925 c-3 -9 -6 -24 -5 -33 0 -9 5 -4 10 12 9 32 6 48 -5 21z"/>
<path d="M3563 5926 c1 -11 9 -21 17 -23 10 -3 11 -2 4 4 -6 4 -14 15 -17 23
-5 11 -6 9 -4 -4z"/>
<path d="M2252 5900 c0 -14 2 -19 5 -12 2 6 2 18 0 25 -3 6 -5 1 -5 -13z"/>
<path d="M2350 5895 c0 -12 3 -16 8 -8 4 6 21 13 37 15 29 3 29 4 -7 9 -33 4
-38 2 -38 -16z"/>
<path d="M2602 5900 c0 -14 2 -19 5 -12 2 6 2 18 0 25 -3 6 -5 1 -5 -13z"/>
<path d="M2672 5900 c0 -14 2 -19 5 -12 2 6 2 18 0 25 -3 6 -5 1 -5 -13z"/>
<path d="M2725 5906 c11 -9 26 -20 33 -26 8 -7 12 -7 12 -1 0 6 -15 18 -32 26
-28 13 -30 14 -13 1z"/>
<path d="M2852 5900 c0 -14 2 -19 5 -12 2 6 2 18 0 25 -3 6 -5 1 -5 -13z"/>
<path d="M2922 5900 c0 -14 2 -19 5 -12 2 6 2 18 0 25 -3 6 -5 1 -5 -13z"/>
<path d="M3522 5900 c0 -14 2 -19 5 -12 2 6 2 18 0 25 -3 6 -5 1 -5 -13z"/>
<path d="M3963 5886 c-33 -30 -37 -39 -37 -84 0 -44 6 -57 43 -107 23 -31 49
-72 57 -91 8 -18 16 -34 19 -34 2 0 13 19 23 43 11 24 33 59 49 78 63 72 64
151 2 204 -47 39 -108 35 -156 -9z m153 -5 c24 -24 30 -38 32 -81 1 -32 -2
-49 -8 -45 -5 3 -10 -1 -10 -10 0 -19 -59 -105 -72 -105 -4 0 -7 -3 -7 -7 1
-5 0 -17 -1 -28 -1 -16 -4 -14 -15 10 -7 17 -13 33 -14 37 -1 5 -15 21 -31 36
-16 16 -27 32 -23 35 3 4 1 7 -5 7 -15 0 -35 67 -26 88 4 9 8 23 10 30 4 23
15 27 25 12 8 -12 9 -10 4 7 -8 28 16 42 71 43 31 0 47 -6 70 -29z"/>
<path d="M4081 5834 c0 -11 3 -14 6 -6 3 7 2 16 -1 19 -3 4 -6 -2 -5 -13z"/>
<path d="M3021 5874 c0 -11 3 -14 6 -6 3 7 2 16 -1 19 -3 4 -6 -2 -5 -13z"/>
<path d="M3763 5872 c-10 -15 -14 -15 -34 -3 -22 13 -23 13 -10 -2 7 -10 19
-17 26 -17 14 0 41 28 34 35 -3 2 -10 -4 -16 -13z"/>
<path d="M2712 5864 c9 -9 21 -15 27 -13 6 2 -2 10 -17 17 -25 11 -25 11 -10
-4z"/>
<path d="M2810 5871 c0 -6 4 -13 10 -16 6 -3 7 1 4 9 -7 18 -14 21 -14 7z"/>
<path d="M3350 5868 c0 -13 7 -18 28 -17 21 1 22 2 7 6 -11 3 -23 10 -27 17
-5 7 -8 5 -8 -6z"/>
<path d="M3495 5860 c-16 -7 -17 -9 -3 -9 9 -1 20 4 23 9 7 11 7 11 -20 0z"/>
<path d="M3375 5758 c-5 -20 -14 -28 -29 -28 -20 -1 -20 -2 -3 -14 9 -7 15
-20 12 -28 -4 -10 3 -14 30 -14 28 0 34 3 30 17 -4 10 1 19 12 24 16 6 16 8
-5 16 -12 5 -26 19 -31 31 -9 23 -9 23 -16 -4z"/>
<path d="M3783 5773 c9 -2 25 -2 35 0 9 3 1 5 -18 5 -19 0 -27 -2 -17 -5z"/>
<path d="M3145 5760 c-3 -5 -1 -10 4 -10 6 0 11 5 11 10 0 6 -2 10 -4 10 -3 0
-8 -4 -11 -10z"/>
<path d="M3620 5706 c0 -8 51 -13 56 -5 3 5 -9 9 -25 9 -17 0 -31 -2 -31 -4z"/>
<path d="M3708 5703 c12 -2 30 -2 40 0 9 3 -1 5 -23 4 -22 0 -30 -2 -17 -4z"/>
<path d="M3123 5693 c9 -2 25 -2 35 0 9 3 1 5 -18 5 -19 0 -27 -2 -17 -5z"/>
<path d="M3230 5679 c0 -5 11 -9 25 -9 14 0 25 2 25 4 0 2 -11 6 -25 8 -14 3
-25 1 -25 -3z"/>
<path d="M5093 5560 c0 -41 2 -58 4 -37 2 20 2 54 0 75 -2 20 -4 3 -4 -38z"/>
<path d="M5853 5596 c-33 -30 -37 -39 -37 -84 0 -44 6 -57 43 -107 23 -31 49
-72 57 -91 8 -18 16 -34 18 -34 2 0 14 20 26 44 11 25 34 61 50 81 61 76 60
148 -1 200 -47 39 -108 35 -156 -9z m158 -7 c27 -29 35 -61 30 -109 -1 -8 -19
-39 -39 -68 -20 -28 -44 -66 -53 -82 l-17 -31 -10 28 c-5 15 -26 48 -46 71
-20 24 -33 48 -30 53 3 5 1 9 -4 9 -14 0 -22 38 -15 72 3 16 18 42 33 58 23
25 36 30 75 30 40 0 51 -5 76 -31z"/>
<path d="M4788 5613 c6 -2 18 -2 25 0 6 3 1 5 -13 5 -14 0 -19 -2 -12 -5z"/>
<path d="M3240 5605 c-1 -5 -1 -22 0 -37 1 -23 -3 -28 -22 -29 -20 -1 -21 -2
-3 -6 11 -3 23 -10 26 -15 11 -17 15 15 8 57 -3 22 -7 36 -9 30z"/>
<path d="M3871 5584 c0 -11 3 -14 6 -6 3 7 2 16 -1 19 -3 4 -6 -2 -5 -13z"/>
<path d="M3340 5586 c0 -2 7 -7 16 -10 8 -3 12 -2 9 4 -6 10 -25 14 -25 6z"/>
<path d="M3465 5560 c-16 -7 -17 -9 -3 -9 9 -1 19 -11 21 -23 3 -17 5 -14 6
10 0 17 0 32 -1 31 -2 0 -12 -4 -23 -9z"/>
<path d="M3642 5535 c0 -16 2 -22 5 -12 2 9 2 23 0 30 -3 6 -5 -1 -5 -18z"/>
<path d="M3813 5553 c9 -2 23 -2 30 0 6 3 -1 5 -18 5 -16 0 -22 -2 -12 -5z"/>
<path d="M5720 5550 l-35 -7 38 -2 c20 0 37 4 37 9 0 6 -1 9 -2 9 -2 -1 -19
-5 -38 -9z"/>
<path d="M5568 5543 c6 -2 18 -2 25 0 6 3 1 5 -13 5 -14 0 -19 -2 -12 -5z"/>
<path d="M3327 5518 c2 -5 10 -8 18 -8 8 0 16 3 18 8 3 4 -5 7 -18 7 -13 0
-21 -3 -18 -7z"/>
<path d="M3808 5518 c5 -5 16 -8 23 -6 8 3 3 7 -10 11 -17 4 -21 3 -13 -5z"/>
<path d="M5585 5510 c-3 -5 -1 -10 4 -10 6 0 11 5 11 10 0 6 -2 10 -4 10 -3 0
-8 -4 -11 -10z"/>
<path d="M5547 5499 c7 -7 15 -10 18 -7 3 3 -2 9 -12 12 -14 6 -15 5 -6 -5z"/>
<path d="M4788 5493 c6 -2 18 -2 25 0 6 3 1 5 -13 5 -14 0 -19 -2 -12 -5z"/>
<path d="M4583 5423 c9 -2 23 -2 30 0 6 3 -1 5 -18 5 -16 0 -22 -2 -12 -5z"/>
<path d="M2173 5335 c0 -38 2 -53 4 -32 2 20 2 52 0 70 -2 17 -4 1 -4 -38z"/>
<path d="M2773 5330 c0 -41 2 -58 4 -37 2 20 2 54 0 75 -2 20 -4 3 -4 -38z"/>
<path d="M4933 5350 c0 -30 2 -43 4 -27 2 15 2 39 0 55 -2 15 -4 2 -4 -28z"/>
<path d="M5085 5390 c-3 -6 1 -7 9 -4 18 7 21 14 7 14 -6 0 -13 -4 -16 -10z"/>
<path d="M1683 5383 c15 -2 37 -2 50 0 12 2 0 4 -28 4 -27 0 -38 -2 -22 -4z"/>
<path d="M2538 5383 c7 -3 16 -2 19 1 4 3 -2 6 -13 5 -11 0 -14 -3 -6 -6z"/>
<path d="M4583 5353 c9 -2 25 -2 35 0 9 3 1 5 -18 5 -19 0 -27 -2 -17 -5z"/>
<path d="M4718 5353 c7 -3 16 -2 19 1 4 3 -2 6 -13 5 -11 0 -14 -3 -6 -6z"/>
<path d="M5278 5353 c7 -3 16 -2 19 1 4 3 -2 6 -13 5 -11 0 -14 -3 -6 -6z"/>
<path d="M5378 5353 c7 -3 16 -2 19 1 4 3 -2 6 -13 5 -11 0 -14 -3 -6 -6z"/>
<path d="M5528 5353 c6 -2 18 -2 25 0 6 3 1 5 -13 5 -14 0 -19 -2 -12 -5z"/>
<path d="M5690 5352 c0 -4 16 -6 35 -4 19 2 35 6 35 8 0 2 -16 4 -35 4 -19 0
-35 -4 -35 -8z"/>
<path d="M2548 5323 c7 -3 16 -2 19 1 4 3 -2 6 -13 5 -11 0 -14 -3 -6 -6z"/>
<path d="M5545 5320 c-3 -5 -1 -10 4 -10 6 0 11 5 11 10 0 6 -2 10 -4 10 -3 0
-8 -4 -11 -10z"/>
<path d="M2370 5310 c0 -5 7 -7 15 -4 8 4 15 8 15 10 0 2 -7 4 -15 4 -8 0 -15
-4 -15 -10z"/>
<path d="M2418 5313 c7 -3 16 -2 19 1 4 3 -2 6 -13 5 -11 0 -14 -3 -6 -6z"/>
<path d="M5087 5309 c7 -7 15 -10 18 -7 3 3 -2 9 -12 12 -14 6 -15 5 -6 -5z"/>
<path d="M2538 5263 c7 -3 16 -2 19 1 4 3 -2 6 -13 5 -11 0 -14 -3 -6 -6z"/>
<path d="M2293 5140 c0 -41 2 -58 4 -37 2 20 2 54 0 75 -2 20 -4 3 -4 -38z"/>
<path d="M1348 5193 c6 -2 18 -2 25 0 6 3 1 5 -13 5 -14 0 -19 -2 -12 -5z"/>
<path d="M1398 5193 c6 -2 18 -2 25 0 6 3 1 5 -13 5 -14 0 -19 -2 -12 -5z"/>
<path d="M1948 5193 c7 -3 16 -2 19 1 4 3 -2 6 -13 5 -11 0 -14 -3 -6 -6z"/>
<path d="M1723 5120 c0 -30 2 -43 4 -27 2 15 2 39 0 55 -2 15 -4 2 -4 -28z"/>
<path d="M2388 5163 c7 -3 16 -2 19 1 4 3 -2 6 -13 5 -11 0 -14 -3 -6 -6z"/>
<path d="M2638 5163 c7 -3 16 -2 19 1 4 3 -2 6 -13 5 -11 0 -14 -3 -6 -6z"/>
<path d="M1490 5130 c-9 -6 -10 -10 -3 -10 6 0 14 -10 16 -22 3 -14 4 -10 4
10 -1 17 -1 32 -2 32 0 0 -7 -5 -15 -10z"/>
<path d="M1943 5133 c9 -2 23 -2 30 0 6 3 -1 5 -18 5 -16 0 -22 -2 -12 -5z"/>
<path d="M2242 5131 c-11 -7 -11 -9 2 -14 10 -4 16 -1 16 8 0 17 -1 17 -18 6z"/>
<path d="M2490 5130 c-9 -6 -10 -10 -3 -10 6 0 14 -8 16 -17 3 -11 5 -7 6 10
1 30 1 30 -19 17z"/>
<path d="M1638 5123 c7 -3 16 -2 19 1 4 3 -2 6 -13 5 -11 0 -14 -3 -6 -6z"/>
<path d="M2108 5123 c7 -3 16 -2 19 1 4 3 -2 6 -13 5 -11 0 -14 -3 -6 -6z"/>
<path d="M5624 5079 c-3 -6 -2 -15 3 -20 5 -5 9 -1 9 11 0 23 -2 24 -12 9z"/>
<path d="M5709 5085 c-6 -10 9 -80 16 -74 1 2 0 22 -4 44 -3 22 -9 36 -12 30z"/>
<path d="M5202 5030 c0 -14 4 -38 8 -55 7 -27 8 -27 8 -5 0 14 -4 39 -8 55 -7
27 -8 27 -8 5z"/>
<path d="M5356 5041 c-4 -5 -2 -12 4 -16 5 -3 10 -17 10 -30 0 -13 3 -26 8
-29 4 -2 6 13 4 35 -4 40 -16 57 -26 40z"/>
<path d="M5502 5035 c0 -11 3 -29 8 -40 11 -25 11 1 0 35 -6 20 -8 21 -8 5z"/>
<path d="M5536 5042 c7 -4 14 -16 17 -27 4 -15 5 -14 6 8 1 20 -4 27 -16 27
-12 0 -14 -3 -7 -8z"/>
<path d="M5665 5037 c11 -9 15 -19 10 -27 -5 -9 -4 -11 3 -6 17 10 15 33 -4
40 -25 10 -29 7 -9 -7z"/>
<path d="M5457 5030 c6 -8 13 -26 16 -40 l4 -25 2 26 c0 15 -7 33 -16 40 -16
12 -17 12 -6 -1z"/>
<path d="M5140 5026 c0 -2 9 -6 20 -9 11 -3 20 -1 20 4 0 5 -9 9 -20 9 -11 0
-20 -2 -20 -4z"/>
<path d="M5289 4992 c5 -34 6 -35 9 -8 2 16 0 32 -5 37 -5 5 -7 -7 -4 -29z"/>
<path d="M5325 5020 c3 -5 8 -10 11 -10 2 0 4 5 4 10 0 6 -5 10 -11 10 -5 0
-7 -4 -4 -10z"/>
<path d="M5116 5004 c-4 -9 -4 -19 -1 -22 2 -3 7 3 11 12 4 9 4 19 1 22 -2 3
-7 -3 -11 -12z"/>
<path d="M5250 4994 c0 -10 5 -26 10 -34 8 -11 9 -7 4 15 -8 37 -14 45 -14 19z"/>
<path d="M5342 4980 c0 -14 2 -19 5 -12 2 6 2 18 0 25 -3 6 -5 1 -5 -13z"/>
<path d="M5420 4991 c0 -6 4 -13 10 -16 6 -3 7 1 4 9 -7 18 -14 21 -14 7z"/>
<path d="M5120 4958 c0 -17 36 -35 47 -24 4 3 -1 6 -10 6 -9 0 -21 8 -26 18
-9 15 -10 16 -11 0z"/>
<path d="M2173 4943 c9 -2 23 -2 30 0 6 3 -1 5 -18 5 -16 0 -22 -2 -12 -5z"/>
<path d="M1963 4933 c9 -2 23 -2 30 0 6 3 -1 5 -18 5 -16 0 -22 -2 -12 -5z"/>
<path d="M915 4769 c-19 -17 -35 -36 -35 -42 0 -6 7 -1 16 12 9 12 30 31 48
42 17 10 26 19 19 19 -7 0 -28 -14 -48 -31z"/>
<path d="M3413 4730 c0 -41 2 -58 4 -37 2 20 2 54 0 75 -2 20 -4 3 -4 -38z"/>
<path d="M1057 4765 c10 -13 22 -25 27 -25 5 0 -1 11 -14 25 -30 32 -36 32
-13 0z"/>
<path d="M3108 4783 c6 -2 18 -2 25 0 6 3 1 5 -13 5 -14 0 -19 -2 -12 -5z"/>
<path d="M620 4740 c0 -28 -2 -30 -40 -30 -22 0 -40 -3 -40 -8 0 -4 18 -6 39
-4 38 4 40 3 44 -30 2 -18 5 -3 5 35 1 37 0 67 -3 67 -3 0 -5 -13 -5 -30z"/>
<path d="M348 4733 c6 -2 18 -2 25 0 6 3 1 5 -13 5 -14 0 -19 -2 -12 -5z"/>
<path d="M3212 4710 c0 -14 2 -19 5 -12 2 6 2 18 0 25 -3 6 -5 1 -5 -13z"/>
<path d="M3651 4714 c0 -11 3 -14 6 -6 3 7 2 16 -1 19 -3 4 -6 -2 -5 -13z"/>
<path d="M4040 4720 l-35 -7 38 -2 c20 0 37 4 37 9 0 6 -1 9 -2 9 -2 -1 -19
-5 -38 -9z"/>
<path d="M3888 4713 c6 -2 18 -2 25 0 6 3 1 5 -13 5 -14 0 -19 -2 -12 -5z"/>
<path d="M698 4693 c6 -2 18 -2 25 0 6 3 1 5 -13 5 -14 0 -19 -2 -12 -5z"/>
<path d="M871 4674 c0 -11 3 -14 6 -6 3 7 2 16 -1 19 -3 4 -6 -2 -5 -13z"/>
<path d="M1101 4674 c0 -11 3 -14 6 -6 3 7 2 16 -1 19 -3 4 -6 -2 -5 -13z"/>
<path d="M3905 4680 c-3 -5 -1 -10 4 -10 6 0 11 5 11 10 0 6 -2 10 -4 10 -3 0
-8 -4 -11 -10z"/>
<path d="M3867 4669 c7 -7 15 -10 18 -7 3 3 -2 9 -12 12 -14 6 -15 5 -6 -5z"/>
<path d="M715 4660 c-3 -5 -1 -10 4 -10 6 0 11 5 11 10 0 6 -2 10 -4 10 -3 0
-8 -4 -11 -10z"/>
<path d="M3108 4663 c6 -2 18 -2 25 0 6 3 1 5 -13 5 -14 0 -19 -2 -12 -5z"/>
<path d="M677 4649 c7 -7 15 -10 18 -7 3 3 -2 9 -12 12 -14 6 -15 5 -6 -5z"/>
<path d="M881 4639 c-1 -9 7 -23 17 -30 15 -12 16 -12 6 1 -6 8 -14 22 -17 30
-5 13 -6 12 -6 -1z"/>
<path d="M1060 4588 c-15 -21 -17 -28 -6 -19 16 13 41 51 33 51 -2 0 -14 -15
-27 -32z"/>
<path d="M925 4566 c10 -14 19 -26 22 -26 7 0 -17 39 -28 46 -6 3 -3 -5 6 -20z"/>
<path d="M5113 4553 c-8 -3 -13 -22 -13 -47 0 -35 3 -42 20 -42 17 0 20 7 20
43 0 43 -6 54 -27 46z"/>
<path d="M980 4474 c0 -8 5 -12 10 -9 6 4 8 11 5 16 -9 14 -15 11 -15 -7z"/>
<path d="M5100 4380 c0 -5 9 -10 20 -10 11 0 20 5 20 10 0 6 -9 10 -20 10 -11
0 -20 -4 -20 -10z"/>
<path d="M4960 4305 c0 -14 5 -25 10 -25 6 0 10 11 10 25 0 14 -4 25 -10 25
-5 0 -10 -11 -10 -25z"/>
<path d="M5010 4305 c0 -16 6 -25 16 -25 11 0 14 5 10 16 -3 9 -6 20 -6 25 0
5 -4 9 -10 9 -5 0 -10 -11 -10 -25z"/>
<path d="M5060 4305 c0 -17 5 -25 13 -22 6 2 12 12 12 22 0 10 -6 20 -12 23
-8 2 -13 -6 -13 -23z"/>
<path d="M5110 4305 c0 -14 4 -25 9 -25 12 0 19 21 13 38 -8 21 -22 13 -22
-13z"/>
<path d="M5160 4305 c0 -16 6 -25 16 -25 11 0 14 5 10 16 -3 9 -6 20 -6 25 0
5 -4 9 -10 9 -5 0 -10 -11 -10 -25z"/>
<path d="M5210 4305 c0 -14 5 -25 10 -25 6 0 10 11 10 25 0 14 -4 25 -10 25
-5 0 -10 -11 -10 -25z"/>
<path d="M5260 4305 c0 -25 14 -34 24 -16 8 12 -3 41 -15 41 -5 0 -9 -11 -9
-25z"/>
<path d="M6558 4253 c6 -2 18 -2 25 0 6 3 1 5 -13 5 -14 0 -19 -2 -12 -5z"/>
<path d="M6180 4240 c0 -5 5 -10 11 -10 5 0 7 5 4 10 -3 6 -8 10 -11 10 -2 0
-4 -4 -4 -10z"/>
<path d="M6258 4194 c-2 -25 0 -48 4 -50 5 -3 8 18 8 45 0 64 -7 66 -12 5z"/>
<path d="M4960 4205 c0 -14 4 -25 9 -25 12 0 19 21 13 38 -8 21 -22 13 -22
-13z"/>
<path d="M5010 4205 c0 -14 6 -25 14 -25 9 0 12 8 8 25 -2 14 -8 25 -13 25 -5
0 -9 -11 -9 -25z"/>
<path d="M5060 4205 c0 -14 5 -25 10 -25 6 0 10 11 10 25 0 14 -4 25 -10 25
-5 0 -10 -11 -10 -25z"/>
<path d="M5110 4204 c0 -14 5 -24 11 -22 6 2 10 7 10 11 -1 4 -1 14 -1 22 0 8
-4 15 -10 15 -5 0 -10 -12 -10 -26z"/>
<path d="M5160 4205 c0 -14 4 -25 9 -25 12 0 19 21 13 38 -8 21 -22 13 -22
-13z"/>
<path d="M5210 4205 c0 -14 5 -25 10 -25 6 0 10 11 10 25 0 14 -4 25 -10 25
-5 0 -10 -11 -10 -25z"/>
<path d="M5260 4205 c0 -17 5 -25 13 -22 6 2 12 12 12 22 0 10 -6 20 -12 23
-8 2 -13 -6 -13 -23z"/>
<path d="M6333 4183 c9 -2 23 -2 30 0 6 3 -1 5 -18 5 -16 0 -22 -2 -12 -5z"/>
<path d="M6660 4182 c0 -5 14 -7 30 -4 17 2 30 6 30 8 0 2 -13 4 -30 4 -16 0
-30 -4 -30 -8z"/>
<path d="M4960 4110 c0 -11 6 -20 14 -20 9 0 12 7 9 20 -3 11 -9 20 -14 20 -5
0 -9 -9 -9 -20z"/>
<path d="M5010 4105 c0 -23 -3 -25 -50 -25 -27 0 -50 -4 -50 -10 0 -6 77 -10
210 -10 133 0 210 4 210 10 0 6 -22 10 -50 10 -47 0 -50 2 -50 25 0 14 -4 25
-10 25 -5 0 -10 -12 -10 -26 0 -23 -3 -25 -37 -22 -31 2 -39 7 -41 26 -5 30
-22 28 -22 -4 0 -23 -3 -25 -37 -22 -31 2 -39 7 -41 26 -5 30 -22 28 -22 -3z"/>
<path d="M5060 4110 c0 -11 4 -20 9 -20 11 0 22 26 14 34 -12 12 -23 5 -23
-14z"/>
<path d="M5160 4110 c0 -11 6 -20 14 -20 9 0 12 7 9 20 -3 11 -9 20 -14 20 -5
0 -9 -9 -9 -20z"/>
<path d="M5260 4110 c0 -11 5 -20 10 -20 6 0 10 9 10 20 0 11 -4 20 -10 20 -5
0 -10 -9 -10 -20z"/>
<path d="M5213 3960 c0 -41 2 -58 4 -37 2 20 2 54 0 75 -2 20 -4 3 -4 -38z"/>
<path d="M5573 3960 c0 -41 2 -58 4 -37 2 20 2 54 0 75 -2 20 -4 3 -4 -38z"/>
<path d="M4682 3953 c0 -38 3 -54 5 -36 3 26 9 33 31 36 l27 4 -27 2 c-23 1
-28 6 -28 25 0 20 6 25 33 29 31 4 31 4 -5 5 l-38 2 2 -67z"/>
<path d="M5303 3955 c0 -38 2 -55 4 -37 4 29 7 32 38 32 31 0 34 -3 38 -32 2
-18 4 -1 4 37 0 39 -2 55 -4 38 -4 -30 -7 -33 -38 -33 -31 0 -34 3 -38 33 -2
17 -4 1 -4 -38z"/>
<path d="M4786 3982 c-3 -5 4 -8 16 -8 12 1 23 -5 25 -11 3 -8 -4 -13 -15 -13
-29 0 -48 -26 -32 -45 7 -8 17 -15 23 -15 6 0 3 6 -8 13 -21 16 -12 37 17 37
15 0 19 -5 15 -20 -3 -11 -1 -23 4 -26 14 -8 11 70 -3 84 -14 14 -35 16 -42 4z"/>
<path d="M4870 3940 c0 -29 2 -51 4 -49 8 8 10 88 3 95 -4 4 -7 -17 -7 -46z"/>
<path d="M4913 3979 c11 -7 18 -24 19 -52 l1 -42 4 38 c4 38 -9 67 -31 67 -6
0 -3 -5 7 -11z"/>
<path d="M4979 3973 c-13 -16 -12 -17 3 -4 10 7 25 11 33 7 9 -3 13 -2 10 4
-10 15 -31 12 -46 -7z"/>
<path d="M5122 3952 c-2 -45 -25 -67 -44 -41 -8 12 -9 11 -5 -1 4 -18 27 -23
45 -11 9 5 12 23 9 52 l-4 44 -1 -43z"/>
<path d="M5436 3982 c-3 -5 4 -8 16 -8 12 1 23 -5 25 -11 3 -8 -4 -13 -15 -13
-29 0 -48 -26 -32 -45 7 -8 17 -15 23 -15 6 0 3 6 -8 13 -21 16 -12 37 17 37
15 0 19 -5 15 -20 -3 -11 -1 -23 4 -26 14 -8 11 70 -3 84 -14 14 -35 16 -42 4z"/>
<path d="M5000 3950 l-35 -7 38 -2 c20 0 37 4 37 9 0 6 -1 9 -2 9 -2 -1 -19
-5 -38 -9z"/>
<path d="M4972 3921 c7 -25 36 -37 50 -23 11 11 9 12 -6 6 -13 -5 -24 -1 -34
12 -8 10 -12 13 -10 5z"/>
<path d="M133 3876 c-6 -8 -8 -17 -3 -22 5 -5 10 -24 12 -43 5 -57 23 -47 21
11 0 29 -2 56 -2 61 -1 11 -15 8 -28 -7z"/>
<path d="M51 3861 c-18 -12 -7 -41 19 -48 11 -3 20 -10 20 -15 0 -6 -11 -7
-25 -4 -29 7 -35 -10 -6 -19 26 -8 51 4 51 26 0 12 -9 21 -25 25 -14 3 -25 11
-25 16 0 6 11 7 25 4 27 -7 35 8 9 18 -20 8 -26 7 -43 -3z"/>
<path d="M202 3858 c-17 -17 -15 -63 3 -78 12 -10 21 -10 40 -2 42 19 30 92
-15 92 -9 0 -21 -5 -28 -12z m48 -38 c0 -23 -4 -30 -20 -30 -16 0 -20 7 -20
30 0 23 4 30 20 30 16 0 20 -7 20 -30z"/>
<path d="M290 3819 c0 -27 5 -49 10 -49 6 0 10 18 10 40 0 33 3 40 20 40 17 0
20 -7 20 -40 0 -22 5 -40 10 -40 15 0 12 77 -2 87 -7 4 -25 8 -40 9 -27 2 -28
0 -28 -47z"/>
<path d="M1 3820 c0 -40 2 -42 11 -22 8 16 8 28 0 45 -9 19 -11 17 -11 -23z"/>
<path d="M5513 3785 c0 -33 2 -45 4 -27 2 18 2 45 0 60 -2 15 -4 0 -4 -33z"/>
<path d="M4710 3826 c0 -2 9 -6 20 -9 11 -3 18 -1 14 4 -5 9 -34 13 -34 5z"/>
<path d="M4690 3801 c0 -10 19 -25 25 -20 1 2 -3 10 -11 17 -8 7 -14 8 -14 3z"/>
<path d="M4807 3803 c6 -4 13 -24 16 -43 4 -34 4 -33 3 4 -1 26 -6 41 -16 43
-10 3 -11 2 -3 -4z"/>
<path d="M5030 3806 c0 -2 7 -7 16 -10 8 -3 12 -2 9 4 -6 10 -25 14 -25 6z"/>
<path d="M5093 3770 c0 -25 2 -35 4 -22 2 12 2 32 0 45 -2 12 -4 2 -4 -23z"/>
<path d="M5205 3799 c-11 -16 -1 -19 13 -3 7 8 8 14 3 14 -5 0 -13 -5 -16 -11z"/>
<path d="M5347 3803 c6 -4 13 -24 16 -43 4 -34 4 -33 3 4 -1 26 -6 41 -16 43
-10 3 -11 2 -3 -4z"/>
<path d="M5380 3806 c0 -2 7 -7 16 -10 8 -3 12 -2 9 4 -6 10 -25 14 -25 6z"/>
<path d="M5446 3801 c-4 -5 3 -7 14 -4 23 6 26 13 6 13 -8 0 -17 -4 -20 -9z"/>
<path d="M4852 3770 c0 -14 2 -19 5 -12 2 6 2 18 0 25 -3 6 -5 1 -5 -13z"/>
<path d="M4902 3770 c0 -14 2 -19 5 -12 2 6 2 18 0 25 -3 6 -5 1 -5 -13z"/>
<path d="M4982 3770 c0 -14 2 -19 5 -12 2 6 2 18 0 25 -3 6 -5 1 -5 -13z"/>
<path d="M5463 3780 c-28 -11 -30 -20 -4 -13 14 4 21 -1 24 -19 3 -18 5 -16 6
10 0 17 0 32 -1 31 -2 0 -13 -4 -25 -9z"/>
<path d="M5012 3755 c0 -16 2 -22 5 -12 2 9 2 23 0 30 -3 6 -5 -1 -5 -18z"/>
<path d="M4931 3754 c0 -11 3 -14 6 -6 3 7 2 16 -1 19 -3 4 -6 -2 -5 -13z"/>
<path d="M5200 3751 c0 -10 19 -25 25 -20 1 2 -3 10 -11 17 -8 7 -14 8 -14 3z"/>
<path d="M4725 3740 c-16 -7 -17 -9 -3 -9 9 -1 20 4 23 9 7 11 7 11 -20 0z"/>
<path d="M5040 3740 c-9 -6 -10 -10 -3 -10 6 0 15 5 18 10 8 12 4 12 -15 0z"/>
<path d="M5230 3710 c-9 -6 -10 -10 -3 -10 6 0 15 5 18 10 8 12 4 12 -15 0z"/>
<path d="M958 3693 c6 -2 18 -2 25 0 6 3 1 5 -13 5 -14 0 -19 -2 -12 -5z"/>
<path d="M1560 3680 c0 -5 5 -10 11 -10 5 0 7 5 4 10 -3 6 -8 10 -11 10 -2 0
-4 -4 -4 -10z"/>
<path d="M1641 3664 c0 -11 3 -14 6 -6 3 7 2 16 -1 19 -3 4 -6 -2 -5 -13z"/>
<path d="M1258 3630 c2 -22 5 -40 7 -40 2 0 5 18 7 40 2 24 -1 40 -7 40 -6 0
-9 -16 -7 -40z"/>
<path d="M968 3633 c7 -3 16 -2 19 1 4 3 -2 6 -13 5 -11 0 -14 -3 -6 -6z"/>
<path d="M1638 3616 c-3 -14 -1 -31 3 -38 6 -8 9 1 9 25 0 42 -6 48 -12 13z"/>
<path d="M1698 3623 c6 -2 18 -2 25 0 6 3 1 5 -13 5 -14 0 -19 -2 -12 -5z"/>
<path d="M5105 3600 c-3 -6 1 -7 9 -4 18 7 21 14 7 14 -6 0 -13 -4 -16 -10z"/>
<path d="M798 3483 c7 -3 16 -2 19 1 4 3 -2 6 -13 5 -11 0 -14 -3 -6 -6z"/>
<path d="M1548 3483 c7 -3 16 -2 19 1 4 3 -2 6 -13 5 -11 0 -14 -3 -6 -6z"/>
<path d="M744 3452 c-9 -5 -8 -11 2 -20 12 -11 14 -9 14 8 0 22 0 23 -16 12z"/>
<path d="M868 3443 c12 -2 30 -2 40 0 9 3 -1 5 -23 4 -22 0 -30 -2 -17 -4z"/>
<path d="M1028 3443 c7 -3 16 -2 19 1 4 3 -2 6 -13 5 -11 0 -14 -3 -6 -6z"/>
<path d="M1623 3443 c9 -2 23 -2 30 0 6 3 -1 5 -18 5 -16 0 -22 -2 -12 -5z"/>
<path d="M5095 3400 c10 -11 20 -20 23 -20 3 0 -3 9 -13 20 -10 11 -20 20 -23
20 -3 0 3 -9 13 -20z"/>
<path d="M4590 3391 c0 -6 4 -13 10 -16 6 -3 7 1 4 9 -7 18 -14 21 -14 7z"/>
<path d="M4795 3369 c-4 -6 -5 -12 -2 -15 2 -3 7 2 10 11 7 17 1 20 -8 4z"/>
<path d="M5160 3291 c0 -6 4 -13 10 -16 6 -3 7 1 4 9 -7 18 -14 21 -14 7z"/>
<path d="M4690 3230 c0 -5 5 -10 11 -10 5 0 7 5 4 10 -3 6 -8 10 -11 10 -2 0
-4 -4 -4 -10z"/>
<path d="M7103 3155 c0 -33 2 -45 4 -27 2 18 2 45 0 60 -2 15 -4 0 -4 -33z"/>
<path d="M7308 3193 c6 -2 18 -2 25 0 6 3 1 5 -13 5 -14 0 -19 -2 -12 -5z"/>
<path d="M4813 3163 c9 -2 25 -2 35 0 9 3 1 5 -18 5 -19 0 -27 -2 -17 -5z"/>
<path d="M4908 3163 c12 -2 32 -2 45 0 12 2 2 4 -23 4 -25 0 -35 -2 -22 -4z"/>
<path d="M1953 3115 c0 -22 2 -30 4 -17 2 12 2 30 0 40 -3 9 -5 -1 -4 -23z"/>
<path d="M2398 3133 c6 -2 18 -2 25 0 6 3 1 5 -13 5 -14 0 -19 -2 -12 -5z"/>
<path d="M7308 3133 c7 -3 16 -2 19 1 4 3 -2 6 -13 5 -11 0 -14 -3 -6 -6z"/>
<path d="M7628 3123 c7 -3 16 -2 19 1 4 3 -2 6 -13 5 -11 0 -14 -3 -6 -6z"/>
<path d="M4751 3104 c0 -11 3 -14 6 -6 3 7 2 16 -1 19 -3 4 -6 -2 -5 -13z"/>
<path d="M1573 3065 c0 -27 2 -38 4 -22 2 15 2 37 0 50 -2 12 -4 0 -4 -28z"/>
<path d="M4813 3103 c9 -2 23 -2 30 0 6 3 -1 5 -18 5 -16 0 -22 -2 -12 -5z"/>
<path d="M1528 3050 c-3 -16 -1 -30 4 -30 4 0 8 14 8 30 0 17 -2 30 -4 30 -2
0 -6 -13 -8 -30z"/>
<path d="M2092 3060 c0 -14 2 -19 5 -12 2 6 2 18 0 25 -3 6 -5 1 -5 -13z"/>
<path d="M1952 3045 c0 -16 2 -22 5 -12 2 9 2 23 0 30 -3 6 -5 -1 -5 -18z"/>
<path d="M2028 3063 c7 -3 16 -2 19 1 4 3 -2 6 -13 5 -11 0 -14 -3 -6 -6z"/>
<path d="M6024 3059 c-3 -6 -2 -15 3 -20 5 -5 9 -1 9 11 0 23 -2 24 -12 9z"/>
<path d="M6115 3038 c10 -49 21 -53 17 -8 -2 22 -8 40 -14 40 -6 0 -7 -13 -3
-32z"/>
<path d="M1803 3053 c9 -2 25 -2 35 0 9 3 1 5 -18 5 -19 0 -27 -2 -17 -5z"/>
<path d="M4580 3048 c0 -4 16 -8 35 -8 19 0 35 2 35 4 0 2 -16 6 -35 8 -19 2
-35 0 -35 -4z"/>
<path d="M2742 3030 c0 -14 2 -19 5 -12 2 6 2 18 0 25 -3 6 -5 1 -5 -13z"/>
<path d="M5692 3030 c0 -14 4 -38 8 -55 l8 -30 0 35 c0 19 -3 44 -8 55 -8 18
-9 18 -8 -5z"/>
<path d="M5898 3028 c5 -7 12 -24 15 -38 4 -22 4 -21 6 6 1 21 -5 34 -15 38
-13 5 -14 3 -6 -6z"/>
<path d="M5948 3013 c5 -21 7 -23 10 -9 2 10 0 22 -6 28 -6 6 -7 0 -4 -19z"/>
<path d="M5817 3009 c4 -13 8 -18 11 -10 2 7 -1 18 -6 23 -8 8 -9 4 -5 -13z"/>
<path d="M5860 3013 c0 -10 4 -24 9 -31 5 -9 8 -3 7 17 -1 32 -16 45 -16 14z"/>
<path d="M6065 3017 c10 -8 15 -19 11 -25 -4 -7 -2 -12 3 -12 17 0 13 37 -5
44 -25 10 -29 7 -9 -7z"/>
<path d="M5486 2975 c4 -27 8 -52 10 -54 8 -9 2 65 -7 84 -6 13 -7 4 -3 -30z"/>
<path d="M5644 2988 c10 -48 22 -53 18 -8 -2 22 -9 40 -14 40 -6 0 -8 -13 -4
-32z"/>
<path d="M5735 3010 c3 -5 8 -10 11 -10 2 0 4 5 4 10 0 6 -5 10 -11 10 -5 0
-7 -4 -4 -10z"/>
<path d="M5390 2979 c-7 -11 -9 -23 -6 -27 3 -3 6 0 6 6 0 6 7 18 16 26 8 9
11 16 5 16 -6 0 -15 -9 -21 -21z"/>
<path d="M5437 2989 c7 -7 15 -10 18 -7 3 3 -2 9 -12 12 -14 6 -15 5 -6 -5z"/>
<path d="M5525 2980 c3 -5 8 -10 11 -10 2 0 4 5 4 10 0 6 -5 10 -11 10 -5 0
-7 -4 -4 -10z"/>
<path d="M5613 2963 c1 -18 5 -33 10 -33 9 0 8 19 -3 45 -7 16 -8 14 -7 -12z"/>
<path d="M5781 2974 c0 -11 3 -14 6 -6 3 7 2 16 -1 19 -3 4 -6 -2 -5 -13z"/>
<path d="M5751 2964 c0 -11 3 -14 6 -6 3 7 2 16 -1 19 -3 4 -6 -2 -5 -13z"/>
<path d="M4338 2963 c7 -3 16 -2 19 1 4 3 -2 6 -13 5 -11 0 -14 -3 -6 -6z"/>
<path d="M4758 2963 c7 -3 16 -2 19 1 4 3 -2 6 -13 5 -11 0 -14 -3 -6 -6z"/>
<path d="M5542 2940 c0 -14 2 -19 5 -12 2 6 2 18 0 25 -3 6 -5 1 -5 -13z"/>
<path d="M2533 2943 c15 -2 37 -2 50 0 12 2 0 4 -28 4 -27 0 -38 -2 -22 -4z"/>
<path d="M2219 2928 c-3 -7 -2 -31 1 -53 l6 -40 5 43 c5 42 -4 77 -12 50z"/>
<path d="M3893 2933 c9 -2 23 -2 30 0 6 3 -1 5 -18 5 -16 0 -22 -2 -12 -5z"/>
<path d="M4943 2933 c9 -2 23 -2 30 0 6 3 -1 5 -18 5 -16 0 -22 -2 -12 -5z"/>
<path d="M5390 2928 c0 -10 10 -20 24 -24 28 -7 46 1 45 19 0 9 -2 9 -6 0 -7
-19 -40 -16 -52 5 -10 16 -10 16 -11 0z"/>
<path d="M2660 2880 c-9 -6 -10 -10 -3 -10 6 0 14 -8 16 -17 3 -11 5 -7 6 10
1 30 1 30 -19 17z"/>
<path d="M4719 2658 c-3 -7 -2 -31 1 -53 l6 -40 5 43 c5 42 -4 77 -12 50z"/>
<path d="M4248 2643 c6 -2 18 -2 25 0 6 3 1 5 -13 5 -14 0 -19 -2 -12 -5z"/>
<path d="M4408 2643 c6 -2 18 -2 25 0 6 3 1 5 -13 5 -14 0 -19 -2 -12 -5z"/>
<path d="M4770 2600 c0 -29 2 -51 4 -49 8 8 10 88 3 95 -4 4 -7 -17 -7 -46z"/>
<path d="M5018 2643 c6 -2 18 -2 25 0 6 3 1 5 -13 5 -14 0 -19 -2 -12 -5z"/>
<path d="M4165 2620 c3 -4 14 -10 25 -13 11 -3 18 -2 15 3 -3 4 -14 10 -25 13
-11 3 -18 2 -15 -3z"/>
<path d="M4625 2620 c3 -4 14 -10 25 -13 11 -3 18 -2 15 3 -3 4 -14 10 -25 13
-11 3 -18 2 -15 -3z"/>
<path d="M4860 2610 l-35 -7 38 -2 c20 0 37 4 37 9 0 6 -1 9 -2 9 -2 -1 -19
-5 -38 -9z"/>
<path d="M5250 2616 c0 -2 7 -7 16 -10 8 -3 12 -2 9 4 -6 10 -25 14 -25 6z"/>
<path d="M4338 2603 c6 -2 18 -2 25 0 6 3 1 5 -13 5 -14 0 -19 -2 -12 -5z"/>
<path d="M4483 2603 c9 -2 25 -2 35 0 9 3 1 5 -18 5 -19 0 -27 -2 -17 -5z"/>
<path d="M4943 2603 c9 -2 25 -2 35 0 9 3 1 5 -18 5 -19 0 -27 -2 -17 -5z"/>
<path d="M5149 2593 c-13 -16 -12 -17 4 -4 16 13 21 21 13 21 -2 0 -10 -8 -17
-17z"/>
<path d="M4333 2440 c0 -41 2 -58 4 -37 2 20 2 54 0 75 -2 20 -4 3 -4 -38z"/>
<path d="M3930 2486 c0 -9 5 -16 10 -16 6 0 10 4 10 9 0 6 -4 13 -10 16 -5 3
-10 -1 -10 -9z"/>
<path d="M4027 2479 c-4 -16 -3 -18 9 -8 7 6 11 15 8 20 -8 13 -11 11 -17 -12z"/>
<path d="M4748 2493 c6 -2 18 -2 25 0 6 3 1 5 -13 5 -14 0 -19 -2 -12 -5z"/>
<path d="M4560 2466 c0 -2 7 -7 16 -10 8 -3 12 -2 9 4 -6 10 -25 14 -25 6z"/>
<path d="M4628 2463 c6 -2 18 -2 25 0 6 3 1 5 -13 5 -14 0 -19 -2 -12 -5z"/>
<path d="M4180 2445 c0 -8 2 -15 4 -15 2 0 6 7 10 15 3 8 1 15 -4 15 -6 0 -10
-7 -10 -15z"/>
<path d="M5110 2451 c0 -6 4 -13 10 -16 6 -3 7 1 4 9 -7 18 -14 21 -14 7z"/>
<path d="M4740 2436 c0 -2 11 -6 25 -8 14 -3 25 -1 25 3 0 5 -11 9 -25 9 -14
0 -25 -2 -25 -4z"/>
<path d="M4080 2413 c0 -12 3 -14 8 -6 4 6 21 13 37 16 27 4 27 4 -7 6 -30 1
-38 -3 -38 -16z"/>
<path d="M4468 2423 c7 -3 16 -2 19 1 4 3 -2 6 -13 5 -11 0 -14 -3 -6 -6z"/>
<path d="M5259 2353 c-13 -16 -12 -17 4 -4 16 13 21 21 13 21 -2 0 -10 -8 -17
-17z"/>
<path d="M5210 2291 c0 -5 5 -13 10 -16 6 -3 10 -2 10 4 0 5 -4 13 -10 16 -5
3 -10 2 -10 -4z"/>
<path d="M4828 2283 c7 -3 16 -2 19 1 4 3 -2 6 -13 5 -11 0 -14 -3 -6 -6z"/>
<path d="M4253 2253 c9 -2 23 -2 30 0 6 3 -1 5 -18 5 -16 0 -22 -2 -12 -5z"/>
<path d="M4433 2253 c9 -2 23 -2 30 0 6 3 -1 5 -18 5 -16 0 -22 -2 -12 -5z"/>
<path d="M4663 2253 c9 -2 23 -2 30 0 6 3 -1 5 -18 5 -16 0 -22 -2 -12 -5z"/>
<path d="M5013 2253 c9 -2 23 -2 30 0 6 3 -1 5 -18 5 -16 0 -22 -2 -12 -5z"/>
<path d="M5351 2051 c-8 -14 -7 -20 3 -24 7 -3 16 -19 19 -36 4 -19 13 -31 22
-31 14 0 14 3 -1 25 -9 14 -14 33 -12 43 3 10 -1 23 -8 30 -11 10 -15 8 -23
-7z"/>
<path d="M5260 2045 c-19 -23 -5 -43 35 -51 46 -8 46 -40 1 -37 -21 2 -26 -1
-18 -9 14 -14 61 -2 69 17 8 23 -16 45 -49 45 -23 0 -29 4 -26 18 3 12 12 16
31 15 15 -1 25 2 22 8 -9 14 -51 11 -65 -6z"/>
<path d="M6812 2010 c0 -14 2 -19 5 -12 2 6 2 18 0 25 -3 6 -5 1 -5 -13z"/>
<path d="M5858 2013 c6 -2 18 -2 25 0 6 3 1 5 -13 5 -14 0 -19 -2 -12 -5z"/>
<path d="M6618 2013 c6 -2 18 -2 25 0 6 3 1 5 -13 5 -14 0 -19 -2 -12 -5z"/>
<path d="M6159 1998 c-3 -7 -2 -31 1 -53 l6 -40 5 43 c5 42 -4 77 -12 50z"/>
<path d="M5063 1980 c-1 -11 2 -22 8 -25 5 -4 9 -14 9 -24 0 -10 7 -24 15 -31
8 -7 15 -11 15 -9 -1 2 -7 26 -14 53 -14 52 -31 71 -33 36z"/>
<path d="M5134 1975 c-12 -48 18 -77 59 -57 21 10 20 10 -7 9 -16 -1 -31 4
-33 11 -3 6 1 12 9 12 23 0 39 16 32 33 -10 27 -53 21 -60 -8z m47 0 c0 -5 -9
-11 -21 -13 -20 -3 -27 8 -13 22 10 9 34 3 34 -9z"/>
<path d="M6813 1940 c0 -25 2 -35 4 -22 2 12 2 32 0 45 -2 12 -4 2 -4 -23z"/>
<path d="M4828 1949 c-36 -21 -9 -59 41 -59 15 0 21 -6 21 -21 0 -19 -4 -20
-36 -14 -24 4 -34 3 -29 -4 9 -16 61 -13 75 4 19 23 5 43 -35 51 -45 8 -46 40
-2 37 15 -1 25 2 22 8 -8 12 -35 11 -57 -2z"/>
<path d="M4906 1945 c-3 -8 -1 -15 4 -15 5 0 13 -15 18 -32 5 -21 15 -34 28
-36 14 -2 16 -1 6 6 -8 5 -14 25 -15 43 -2 44 -28 66 -41 34z"/>
<path d="M4980 1951 c0 -4 11 -6 25 -3 25 4 35 -12 13 -21 -8 -3 -6 -6 5 -6
24 -1 22 -31 -3 -31 -11 0 -20 7 -20 16 0 8 -4 12 -10 9 -30 -19 14 -49 46
-32 18 10 19 17 12 45 -7 27 -13 32 -38 32 -17 0 -30 -4 -30 -9z"/>
<path d="M5878 1953 c7 -3 16 -2 19 1 4 3 -2 6 -13 5 -11 0 -14 -3 -6 -6z"/>
<path d="M7208 1953 c7 -3 16 -2 19 1 4 3 -2 6 -13 5 -11 0 -14 -3 -6 -6z"/>
<path d="M6623 1943 c9 -2 23 -2 30 0 6 3 -1 5 -18 5 -16 0 -22 -2 -12 -5z"/>
<path d="M7573 1943 c9 -2 25 -2 35 0 9 3 1 5 -18 5 -19 0 -27 -2 -17 -5z"/>
<path d="M5858 1893 c6 -2 18 -2 25 0 6 3 1 5 -13 5 -14 0 -19 -2 -12 -5z"/>
<path d="M6173 1813 c9 -2 23 -2 30 0 6 3 -1 5 -18 5 -16 0 -22 -2 -12 -5z"/>
<path d="M6178 1773 c6 -2 18 -2 25 0 6 3 1 5 -13 5 -14 0 -19 -2 -12 -5z"/>
<path d="M1748 1763 c6 -2 18 -2 25 0 6 3 1 5 -13 5 -14 0 -19 -2 -12 -5z"/>
<path d="M5953 1763 c9 -2 23 -2 30 0 6 3 -1 5 -18 5 -16 0 -22 -2 -12 -5z"/>
<path d="M70 1729 c0 -5 5 -7 10 -4 6 3 10 8 10 11 0 2 -4 4 -10 4 -5 0 -10
-5 -10 -11z"/>
<path d="M1746 1733 c-11 -11 -6 -23 9 -23 8 0 15 4 15 9 0 13 -16 22 -24 14z"/>
<path d="M1750 1680 c0 -11 5 -20 10 -20 6 0 10 9 10 20 0 11 -4 20 -10 20 -5
0 -10 -9 -10 -20z"/>
<path d="M1720 1590 c0 -5 4 -10 9 -10 6 0 13 5 16 10 3 6 -1 10 -9 10 -9 0
-16 -4 -16 -10z"/>
<path d="M1775 1590 c3 -5 11 -10 16 -10 6 0 7 5 4 10 -3 6 -11 10 -16 10 -6
0 -7 -4 -4 -10z"/>
<path d="M1670 1530 c0 -5 5 -10 10 -10 6 0 10 5 10 10 0 6 -4 10 -10 10 -5 0
-10 -4 -10 -10z"/>
<path d="M1825 1530 c-3 -5 1 -10 10 -10 9 0 13 5 10 10 -3 6 -8 10 -10 10 -2
0 -7 -4 -10 -10z"/>
<path d="M1749 1513 c0 -5 -2 -16 -4 -25 -2 -10 3 -18 11 -18 8 0 14 10 14 25
0 22 -19 38 -21 18z"/>
<path d="M1680 1416 c0 -14 5 -28 10 -31 6 -4 10 7 10 24 0 17 -4 31 -10 31
-5 0 -10 -11 -10 -24z"/>
<path d="M1817 1415 c-4 -25 4 -40 17 -28 9 9 7 41 -3 47 -5 3 -11 -6 -14 -19z"/>
<path d="M1743 1410 c-1 -11 4 -20 13 -20 8 0 14 9 14 20 0 11 -6 20 -13 20
-7 0 -13 -9 -14 -20z"/>
<path d="M1738 1303 l-3 -38 -52 -3 c-29 -2 -53 -7 -53 -13 0 -5 55 -9 130 -9
80 0 130 4 130 10 0 6 -25 10 -55 10 l-55 0 0 40 c0 33 -3 40 -19 40 -16 0
-20 -8 -23 -37z"/>
<path d="M1674 1305 c-3 -8 -3 -19 1 -25 11 -18 25 -11 25 15 0 27 -17 34 -26
10z"/>
<path d="M1814 1304 c3 -9 6 -20 6 -25 0 -5 5 -9 10 -9 6 0 10 11 10 25 0 16
-6 25 -16 25 -11 0 -14 -5 -10 -16z"/>
<path d="M6853 1180 c0 -41 2 -58 4 -37 2 20 2 54 0 75 -2 20 -4 3 -4 -38z"/>
<path d="M5462 1190 c0 -14 2 -19 5 -12 2 6 2 18 0 25 -3 6 -5 1 -5 -13z"/>
<path d="M1253 1130 c0 -41 2 -58 4 -37 2 20 2 54 0 75 -2 20 -4 3 -4 -38z"/>
<path d="M1350 1176 c0 -19 -4 -23 -19 -19 -10 3 -21 1 -24 -4 -3 -5 4 -9 16
-9 19 1 22 -4 22 -34 0 -30 -3 -35 -23 -34 -14 0 -19 -3 -13 -9 5 -5 18 -6 30
-2 18 6 21 14 21 71 0 35 -2 64 -5 64 -3 0 -5 -11 -5 -24z"/>
<path d="M1148 1179 c-10 -5 -18 -15 -18 -20 0 -6 7 -3 16 5 31 32 64 11 64
-39 0 -50 -33 -71 -64 -39 -9 8 -16 11 -16 4 0 -6 11 -16 25 -22 21 -9 28 -8
45 7 25 23 26 76 2 98 -21 19 -30 20 -54 6z"/>
<path d="M1450 1175 c-17 -21 -5 -44 30 -56 16 -6 30 -17 30 -25 0 -21 -29
-29 -51 -15 -11 6 -19 7 -19 1 0 -18 51 -24 67 -7 21 21 10 46 -27 58 -35 13
-39 36 -7 49 15 6 17 9 6 9 -9 1 -22 -6 -29 -14z"/>
<path d="M1903 1125 c0 -38 2 -55 4 -37 4 33 6 34 44 30 21 -2 39 0 39 4 0 5
-18 8 -39 8 -37 0 -40 2 -44 33 -2 17 -4 1 -4 -38z"/>
<path d="M1506 1167 c3 -10 9 -15 12 -12 3 3 0 11 -7 18 -10 9 -11 8 -5 -6z"/>
<path d="M1542 1163 c-7 -7 -8 -13 -3 -13 5 0 11 -19 13 -42 2 -23 8 -43 16
-44 7 -1 8 0 2 3 -12 6 -13 80 -1 85 5 2 4 8 -3 14 -8 8 -15 7 -24 -3z"/>
<path d="M1702 1163 c-7 -7 -8 -13 -3 -13 5 0 11 -19 13 -42 2 -23 8 -43 16
-44 7 -1 8 0 2 3 -12 6 -13 80 -1 85 5 2 4 8 -3 14 -8 8 -15 7 -24 -3z"/>
<path d="M5410 1170 c-9 -6 -10 -10 -3 -10 6 0 14 -10 16 -22 3 -17 5 -14 6
10 1 36 2 35 -19 22z"/>
<path d="M6173 1173 c9 -2 23 -2 30 0 6 3 -1 5 -18 5 -16 0 -22 -2 -12 -5z"/>
<path d="M6023 1163 c9 -2 25 -2 35 0 9 3 1 5 -18 5 -19 0 -27 -2 -17 -5z"/>
<path d="M6298 1163 c7 -3 16 -2 19 1 4 3 -2 6 -13 5 -11 0 -14 -3 -6 -6z"/>
<path d="M6686 1162 c6 -4 14 -14 17 -22 4 -10 6 -8 6 8 1 15 -5 22 -16 22
-11 0 -14 -3 -7 -8z"/>
<path d="M6958 1163 c6 -2 18 -2 25 0 6 3 1 5 -13 5 -14 0 -19 -2 -12 -5z"/>
<path d="M1643 1149 c9 -5 17 -14 17 -19 0 -5 -8 -11 -17 -13 -16 -4 -16 -5 1
-6 13 -1 17 -6 13 -21 -3 -11 -1 -23 4 -26 5 -3 9 15 9 39 0 32 -5 47 -16 51
-24 9 -31 7 -11 -5z"/>
<path d="M1772 1148 c-17 -17 -15 -63 3 -78 11 -10 21 -10 38 -2 21 10 20 10
-8 9 -21 -2 -30 3 -33 16 -3 13 3 17 27 17 19 0 31 5 31 13 0 16 -20 37 -35
37 -6 0 -16 -5 -23 -12z m46 -15 c2 -8 -6 -13 -22 -13 -25 0 -33 10 -19 24 10
10 36 3 41 -11z"/>
<path d="M2041 1146 c-17 -20 -10 -67 11 -80 14 -8 21 -6 35 9 16 17 17 18 1
6 -26 -20 -48 -6 -48 29 0 36 22 49 48 29 15 -13 16 -12 3 4 -16 21 -35 22
-50 3z"/>
<path d="M2133 1125 c0 -22 2 -30 4 -17 2 12 2 30 0 40 -3 9 -5 -1 -4 -23z"/>
<path d="M2188 1118 c-3 -37 -6 -43 -25 -42 -12 0 -20 -3 -17 -8 3 -4 16 -7
29 -6 23 2 25 7 25 50 0 59 -8 63 -12 6z"/>
<path d="M2240 1145 c-13 -15 -6 -35 13 -35 8 0 7 3 -2 9 -19 12 -3 34 20 28
11 -3 17 -1 13 4 -8 14 -30 11 -44 -6z"/>
<path d="M2363 1149 c27 -16 20 -32 -13 -27 -26 4 -30 1 -30 -18 0 -13 4 -25
9 -28 5 -4 7 3 4 14 -5 17 0 20 26 20 24 0 31 4 31 19 0 10 -7 22 -16 25 -24
9 -31 7 -11 -5z"/>
<path d="M5462 1135 c0 -16 2 -22 5 -12 2 9 2 23 0 30 -3 6 -5 -1 -5 -18z"/>
<path d="M1121 1124 c0 -11 3 -14 6 -6 3 7 2 16 -1 19 -3 4 -6 -2 -5 -13z"/>
<path d="M1292 1110 c0 -14 2 -19 5 -12 2 6 2 18 0 25 -3 6 -5 1 -5 -13z"/>
<path d="M6178 1113 c7 -3 16 -2 19 1 4 3 -2 6 -13 5 -11 0 -14 -3 -6 -6z"/>
<path d="M1605 1100 c-8 -12 12 -40 28 -40 6 0 3 6 -8 13 -10 8 -15 19 -11 25
4 7 5 12 2 12 -3 0 -8 -5 -11 -10z"/>
<path d="M2275 1100 c3 -5 8 -10 11 -10 2 0 4 5 4 10 0 6 -5 10 -11 10 -5 0
-7 -4 -4 -10z"/>
<path d="M2230 1082 c0 -16 40 -26 54 -12 8 8 7 10 -7 4 -9 -3 -24 -1 -32 6
-9 8 -15 8 -15 2z"/>
<path d="M1633 955 c0 -33 2 -45 4 -27 2 18 2 45 0 60 -2 15 -4 0 -4 -33z"/>
<path d="M676 991 c-4 -5 3 -7 14 -4 23 6 26 13 6 13 -8 0 -17 -4 -20 -9z"/>
<path d="M2032 986 c7 -8 15 -12 17 -11 5 6 -10 25 -20 25 -5 0 -4 -6 3 -14z"/>
<path d="M2199 989 c-2 -29 3 -74 9 -81 4 -4 6 13 5 38 -1 43 -12 74 -14 43z"/>
<path d="M2319 989 c-2 -29 3 -74 9 -81 4 -4 6 13 5 38 -1 43 -12 74 -14 43z"/>
<path d="M845 969 c-11 -16 -1 -19 13 -3 7 8 8 14 3 14 -5 0 -13 -5 -16 -11z"/>
<path d="M1037 973 c-3 -5 5 -8 18 -8 13 0 21 3 18 8 -2 4 -10 7 -18 7 -8 0
-16 -3 -18 -7z"/>
<path d="M1185 970 c-3 -6 1 -7 9 -4 18 7 21 14 7 14 -6 0 -13 -4 -16 -10z"/>
<path d="M1257 973 c-3 -5 5 -8 18 -8 13 0 21 3 18 8 -2 4 -10 7 -18 7 -8 0
-16 -3 -18 -7z"/>
<path d="M1523 940 c0 -25 2 -35 4 -22 2 12 2 32 0 45 -2 12 -4 2 -4 -23z"/>
<path d="M1570 976 c0 -2 7 -7 16 -10 8 -3 12 -2 9 4 -6 10 -25 14 -25 6z"/>
<path d="M1705 970 c-3 -6 1 -7 9 -4 18 7 21 14 7 14 -6 0 -13 -4 -16 -10z"/>
<path d="M1790 976 c0 -2 7 -7 16 -10 8 -3 12 -2 9 4 -6 10 -25 14 -25 6z"/>
<path d="M1918 973 c7 -3 16 -2 19 1 4 3 -2 6 -13 5 -11 0 -14 -3 -6 -6z"/>
<path d="M2124 969 c-3 -6 -1 -16 5 -22 9 -9 10 -7 5 7 -6 16 -4 18 14 14 12
-4 20 -2 16 3 -7 12 -31 11 -40 -2z"/>
<path d="M2247 973 c-3 -5 5 -8 18 -8 13 0 21 3 18 8 -2 4 -10 7 -18 7 -8 0
-16 -3 -18 -7z"/>
<path d="M2490 976 c0 -2 7 -7 16 -10 8 -3 12 -2 9 4 -6 10 -25 14 -25 6z"/>
<path d="M2621 964 c0 -11 3 -14 6 -6 3 7 2 16 -1 19 -3 4 -6 -2 -5 -13z"/>
<path d="M2640 976 c0 -2 7 -7 16 -10 8 -3 12 -2 9 4 -6 10 -25 14 -25 6z"/>
<path d="M2703 940 c0 -25 2 -35 4 -22 2 12 2 32 0 45 -2 12 -4 2 -4 -23z"/>
<path d="M2728 973 c6 -2 18 -2 25 0 6 3 1 5 -13 5 -14 0 -19 -2 -12 -5z"/>
<path d="M2787 973 c-3 -5 5 -8 18 -8 13 0 21 3 18 8 -2 4 -10 7 -18 7 -8 0
-16 -3 -18 -7z"/>
<path d="M662 950 c0 -14 2 -19 5 -12 2 6 2 18 0 25 -3 6 -5 1 -5 -13z"/>
<path d="M763 935 c0 -22 2 -30 4 -17 2 12 2 30 0 40 -3 9 -5 -1 -4 -23z"/>
<path d="M1412 940 c0 -14 2 -19 5 -12 2 6 2 18 0 25 -3 6 -5 1 -5 -13z"/>
<path d="M1875 950 c-17 -7 -17 -9 -2 -9 9 -1 17 -5 17 -11 0 -5 -8 -13 -17
-19 -16 -9 -15 -10 5 -8 17 1 22 7 22 29 0 15 -1 28 -2 27 -2 0 -12 -4 -23 -9z"/>
<path d="M2360 949 c0 -5 11 -9 25 -9 14 0 25 2 25 4 0 2 -11 6 -25 8 -14 3
-25 1 -25 -3z"/>
<path d="M2575 950 c-17 -7 -17 -9 -2 -9 9 -1 17 -5 17 -11 0 -5 -8 -13 -17
-19 -16 -9 -15 -10 5 -8 17 1 22 7 22 29 0 15 -1 28 -2 27 -2 0 -12 -4 -23 -9z"/>
<path d="M1036 941 c-3 -4 6 -6 19 -3 14 2 25 6 25 8 0 8 -39 4 -44 -5z"/>
<path d="M1171 939 c-1 -19 26 -45 36 -35 3 3 1 6 -6 6 -6 0 -16 10 -21 23 -6
15 -9 17 -9 6z"/>
<path d="M1442 930 c0 -14 2 -19 5 -12 2 6 2 18 0 25 -3 6 -5 1 -5 -13z"/>
<path d="M1578 943 c7 -3 16 -2 19 1 4 3 -2 6 -13 5 -11 0 -14 -3 -6 -6z"/>
<path d="M1783 943 c9 -2 23 -2 30 0 6 3 -1 5 -18 5 -16 0 -22 -2 -12 -5z"/>
<path d="M2246 941 c-3 -4 6 -6 19 -3 14 2 25 6 25 8 0 8 -39 4 -44 -5z"/>
<path d="M951 924 c0 -11 3 -14 6 -6 3 7 2 16 -1 19 -3 4 -6 -2 -5 -13z"/>
<path d="M1553 926 c1 -11 9 -21 17 -23 10 -3 11 -2 4 4 -6 4 -14 15 -17 23
-5 11 -6 9 -4 -4z"/>
<path d="M1736 927 c3 -10 9 -15 12 -12 3 3 0 11 -7 18 -10 9 -11 8 -5 -6z"/>
<path d="M840 921 c0 -10 19 -25 25 -20 1 2 -3 10 -11 17 -8 7 -14 8 -14 3z"/>
<path d="M2040 926 c0 -2 7 -9 15 -16 13 -11 14 -10 9 4 -5 14 -24 23 -24 12z"/>
<path d="M2622 905 c0 -16 2 -22 5 -12 2 9 2 23 0 30 -3 6 -5 -1 -5 -18z"/>
<path d="M678 908 c5 -5 16 -8 23 -6 8 3 3 7 -10 11 -17 4 -21 3 -13 -5z"/>
<path d="M1037 909 c7 -7 15 -10 18 -7 3 3 -2 9 -12 12 -14 6 -15 5 -6 -5z"/>
<path d="M1257 908 c2 -5 10 -8 18 -8 8 0 16 3 18 8 3 4 -5 7 -18 7 -13 0 -21
-3 -18 -7z"/>
<path d="M2127 908 c2 -5 10 -8 18 -8 8 0 16 3 18 8 3 4 -5 7 -18 7 -13 0 -21
-3 -18 -7z"/>
<path d="M2247 909 c7 -7 15 -10 18 -7 3 3 -2 9 -12 12 -14 6 -15 5 -6 -5z"/>
<path d="M2500 910 c-9 -6 -10 -10 -3 -10 6 0 15 5 18 10 8 12 4 12 -15 0z"/>
<path d="M2650 910 c-9 -6 -10 -10 -3 -10 6 0 15 5 18 10 8 12 4 12 -15 0z"/>
<path d="M2787 908 c2 -5 10 -8 18 -8 8 0 16 3 18 8 3 4 -5 7 -18 7 -13 0 -21
-3 -18 -7z"/>
<path d="M865 880 c-16 -7 -17 -9 -3 -9 9 -1 20 4 23 9 7 11 7 11 -20 0z"/>
<path d="M5768 803 c6 -2 18 -2 25 0 6 3 1 5 -13 5 -14 0 -19 -2 -12 -5z"/>
<path d="M6068 788 c-3 -7 -2 -22 2 -32 6 -19 7 -19 12 1 7 25 -6 53 -14 31z"/>
<path d="M2333 705 c0 -38 2 -55 4 -37 4 29 7 32 38 32 31 0 34 -3 38 -32 2
-18 4 -1 4 37 0 39 -2 55 -4 38 -4 -30 -7 -33 -38 -33 -31 0 -34 3 -38 33 -2
17 -4 1 -4 -38z"/>
<path d="M2816 754 c-10 -9 -15 -30 -15 -52 l2 -37 6 39 c8 50 32 67 60 42 24
-22 28 -15 5 8 -8 9 -22 16 -29 16 -7 0 -21 -7 -29 -16z"/>
<path d="M2632 743 c-8 -8 -9 -13 -2 -13 5 0 11 -17 12 -37 l1 -38 4 35 c3 19
8 37 13 40 4 3 2 10 -4 16 -9 8 -15 7 -24 -3z"/>
<path d="M2692 743 c-7 -7 -8 -13 -3 -13 5 0 11 -19 13 -42 2 -23 8 -43 16
-44 7 -1 8 0 2 3 -12 6 -13 80 -1 85 5 2 4 8 -3 14 -8 8 -15 7 -24 -3z"/>
<path d="M3111 741 c-10 -6 -9 -10 3 -14 8 -3 18 -2 21 3 8 13 -9 20 -24 11z"/>
<path d="M5360 740 c-9 -6 -10 -10 -3 -10 6 0 14 -10 16 -22 3 -17 5 -14 6 10
1 36 2 35 -19 22z"/>
<path d="M5662 741 c-11 -7 -11 -9 2 -14 10 -4 16 -1 16 8 0 17 -1 17 -18 6z"/>
<path d="M5788 743 c7 -3 16 -2 19 1 4 3 -2 6 -13 5 -11 0 -14 -3 -6 -6z"/>
<path d="M2560 736 c0 -2 9 -6 20 -9 11 -3 18 -1 14 4 -5 9 -34 13 -34 5z"/>
<path d="M3010 690 c0 -29 2 -51 4 -49 8 8 10 88 3 95 -4 4 -7 -17 -7 -46z"/>
<path d="M3053 729 c11 -7 18 -24 19 -52 l1 -42 4 38 c4 38 -9 67 -31 67 -6 0
-3 -5 7 -11z"/>
<path d="M3170 690 c0 -29 2 -51 4 -49 8 8 10 88 3 95 -4 4 -7 -17 -7 -46z"/>
<path d="M3233 690 c0 -30 2 -43 4 -27 2 15 2 39 0 55 -2 15 -4 2 -4 -28z"/>
<path d="M3301 737 c2 -1 13 -9 24 -17 19 -14 19 -14 6 3 -7 9 -18 17 -24 17
-6 0 -8 -1 -6 -3z"/>
<path d="M5258 733 c7 -3 16 -2 19 1 4 3 -2 6 -13 5 -11 0 -14 -3 -6 -6z"/>
<path d="M3272 690 c0 -14 2 -19 5 -12 2 6 2 18 0 25 -3 6 -5 1 -5 -13z"/>
<path d="M5665 700 c-3 -5 -1 -10 4 -10 6 0 11 5 11 10 0 6 -2 10 -4 10 -3 0
-8 -4 -11 -10z"/>
<path d="M2568 693 c6 -2 18 -2 25 0 6 3 1 5 -13 5 -14 0 -19 -2 -12 -5z"/>
<path d="M2910 692 c0 -4 16 -6 35 -4 19 2 35 6 35 8 0 2 -16 4 -35 4 -19 0
-35 -4 -35 -8z"/>
<path d="M5768 683 c6 -2 18 -2 25 0 6 3 1 5 -13 5 -14 0 -19 -2 -12 -5z"/>
<path d="M2869 664 c-8 -10 -21 -13 -38 -10 -22 5 -23 5 -8 -4 21 -13 53 -5
61 15 7 19 2 19 -15 -1z"/>
<path d="M3120 666 c0 -8 4 -17 9 -20 5 -4 7 3 4 14 -6 23 -13 26 -13 6z"/>
<path d="M2470 660 c0 -5 5 -10 10 -10 6 0 10 5 10 10 0 6 -4 10 -10 10 -5 0
-10 -4 -10 -10z"/>
<path d="M2540 662 c0 -18 26 -25 47 -12 16 9 15 10 -6 4 -15 -4 -27 -1 -32 7
-7 11 -9 11 -9 1z"/>
<path d="M2920 661 c0 -9 30 -24 36 -18 2 1 -6 8 -16 15 -11 7 -20 8 -20 3z"/>
<path d="M2459 613 c-13 -16 -12 -17 4 -4 16 13 21 21 13 21 -2 0 -10 -8 -17
-17z"/>
<path d="M2083 576 c-33 -30 -37 -39 -37 -84 0 -44 6 -57 43 -107 23 -31 49
-72 57 -91 8 -18 16 -34 19 -34 2 0 13 19 23 43 11 24 33 59 49 78 46 53 59
101 39 153 -19 50 -58 76 -115 76 -33 0 -49 -7 -78 -34z m141 9 c10 -7 15 -18
11 -24 -4 -7 0 -8 11 -4 12 4 15 3 10 -5 -4 -7 -3 -12 2 -12 13 0 14 -87 2
-111 -6 -11 -16 -17 -23 -13 -7 4 -9 4 -5 -1 11 -11 -11 -47 -24 -39 -6 4 -8
3 -5 -3 4 -6 -2 -22 -13 -36 -11 -14 -20 -33 -20 -44 -1 -12 -7 -6 -18 17 -10
19 -34 58 -54 85 -20 28 -39 62 -43 77 -8 30 16 82 49 110 25 21 93 23 120 3z"/>
<path d="M2115 570 c-3 -5 -1 -10 4 -10 6 0 11 5 11 10 0 6 -2 10 -4 10 -3 0
-8 -4 -11 -10z"/>
<path d="M4343 585 c-35 -15 -45 -30 -14 -20 28 9 36 -13 15 -38 l-19 -22 25
21 c14 12 32 24 40 27 12 4 11 6 -2 6 -25 1 -22 16 5 29 20 10 21 11 2 11 -11
0 -35 -6 -52 -14z"/>
<path d="M2863 520 c0 -41 2 -58 4 -37 2 20 2 54 0 75 -2 20 -4 3 -4 -38z"/>
<path d="M2332 513 c0 -38 3 -54 5 -36 3 26 9 33 31 36 l27 4 -27 2 c-23 1
-28 6 -28 25 0 20 6 25 33 29 31 4 31 4 -5 5 l-38 2 2 -67z"/>
<path d="M2953 515 c0 -38 2 -55 4 -37 4 29 7 32 38 32 31 0 34 -3 38 -32 2
-18 4 -1 4 37 0 39 -2 55 -4 38 -4 -30 -7 -33 -38 -33 -31 0 -34 3 -38 33 -2
17 -4 1 -4 -38z"/>
<path d="M3310 571 c0 -5 9 -7 20 -4 11 3 27 0 35 -7 9 -7 15 -8 15 -2 0 5 -7
13 -16 16 -23 9 -54 7 -54 -3z"/>
<path d="M3611 551 c-10 -6 -9 -10 3 -14 8 -3 18 -2 21 3 8 13 -9 20 -24 11z"/>
<path d="M2463 539 c9 -5 17 -14 17 -19 0 -5 -8 -11 -17 -13 -16 -4 -16 -5 1
-6 13 -1 17 -6 13 -21 -3 -11 -1 -23 4 -26 5 -3 9 12 9 33 0 38 -14 63 -34 63
-6 0 -3 -5 7 -11z"/>
<path d="M2520 500 c0 -29 2 -51 4 -49 8 8 10 88 3 95 -4 4 -7 -17 -7 -46z"/>
<path d="M2563 539 c10 -6 18 -23 18 -42 2 -31 2 -31 6 -4 5 29 -11 57 -31 57
-6 0 -3 -5 7 -11z"/>
<path d="M2629 533 c-13 -16 -12 -17 3 -4 10 7 25 11 33 7 9 -3 13 -2 10 4
-10 15 -31 12 -46 -7z"/>
<path d="M2772 513 c-1 -28 -8 -45 -19 -52 -10 -6 -13 -10 -8 -11 26 0 36 19
32 61 l-4 44 -1 -42z"/>
<path d="M3113 539 c9 -5 17 -14 17 -19 0 -5 -8 -11 -17 -13 -16 -4 -16 -5 1
-6 13 -1 17 -6 13 -21 -3 -11 -1 -23 4 -26 5 -3 9 12 9 33 0 38 -14 63 -34 63
-6 0 -3 -5 7 -11z"/>
<path d="M3430 540 c-8 -5 -10 -10 -5 -10 6 0 17 5 25 10 8 5 11 10 5 10 -5 0
-17 -5 -25 -10z"/>
<path d="M3679 533 c-13 -15 -12 -15 9 -2 21 13 25 12 38 -5 8 -11 14 -15 14
-10 0 14 -21 34 -36 34 -6 0 -18 -7 -25 -17z"/>
<path d="M3770 500 c0 -29 2 -51 4 -49 8 8 10 88 3 95 -4 4 -7 -17 -7 -46z"/>
<path d="M3813 539 c11 -7 18 -24 19 -52 l1 -42 4 38 c4 38 -9 67 -31 67 -6 0
-3 -5 7 -11z"/>
<path d="M3370 529 c0 -7 -12 -10 -30 -7 -27 4 -30 2 -29 -21 1 -19 3 -21 6
-8 4 14 12 18 32 15 21 -3 27 0 28 14 1 10 0 18 -3 18 -2 0 -4 -5 -4 -11z"/>
<path d="M3523 526 c1 -11 9 -21 17 -23 10 -3 11 -2 4 4 -6 4 -14 15 -17 23
-5 11 -6 9 -4 -4z"/>
<path d="M2650 510 l-35 -7 38 -2 c20 0 37 4 37 9 0 6 -1 9 -2 9 -2 -1 -19 -5
-38 -9z"/>
<path d="M3411 504 c0 -11 3 -14 6 -6 3 7 2 16 -1 19 -3 4 -6 -2 -5 -13z"/>
<path d="M3482 500 c0 -14 2 -19 5 -12 2 6 2 18 0 25 -3 6 -5 1 -5 -13z"/>
<path d="M1150 488 c0 -10 77 -10 83 0 3 4 -15 7 -39 7 -24 0 -44 -3 -44 -7z"/>
<path d="M2425 490 c-8 -12 12 -40 28 -40 6 0 3 6 -8 13 -10 8 -15 19 -11 25
4 7 5 12 2 12 -3 0 -8 -5 -11 -10z"/>
<path d="M3075 490 c-8 -12 12 -40 28 -40 6 0 3 6 -8 13 -10 8 -15 19 -11 25
4 7 5 12 2 12 -3 0 -8 -5 -11 -10z"/>
<path d="M4371 489 c-13 -5 -21 -12 -18 -15 3 -3 18 1 34 10 31 17 21 20 -16
5z"/>
<path d="M3723 472 c-10 -15 -14 -15 -34 -3 -22 13 -23 13 -10 -2 7 -10 19
-17 26 -17 14 0 41 28 34 35 -3 2 -10 -4 -16 -13z"/>
<path d="M3620 471 c0 -6 4 -13 10 -16 6 -3 7 1 4 9 -7 18 -14 21 -14 7z"/>
<path d="M4410 465 c-19 -7 -28 -14 -20 -14 8 0 29 6 45 14 39 17 21 18 -25 0z"/>
<path d="M3310 459 c0 -5 11 -9 25 -9 14 0 25 2 25 4 0 2 -11 6 -25 8 -14 3
-25 1 -25 -3z"/>
<path d="M1134 446 c-19 -50 26 -74 51 -27 8 17 20 31 25 31 14 0 12 -34 -2
-49 -11 -11 -10 -13 2 -9 9 3 15 17 15 34 0 41 -29 44 -50 4 -18 -35 -40 -30
-31 6 7 26 -1 33 -10 10z"/>
<path d="M2619 453 c-23 -6 -50 -56 -39 -73 8 -12 10 -10 10 7 0 12 12 34 27
48 15 14 26 24 23 24 -3 -1 -12 -3 -21 -6z"/>
<path d="M4423 422 c-24 -9 -43 -20 -43 -24 0 -4 11 -3 24 2 13 5 26 7 27 6 2
-2 13 5 23 15 23 22 23 22 -31 1z"/>
<path d="M2788 389 c-21 -12 -24 -69 -6 -87 20 -20 65 -14 82 10 21 30 20 44
-4 68 -22 22 -46 25 -72 9z m60 -25 c15 -27 3 -54 -24 -54 -29 0 -46 28 -33
52 12 23 45 23 57 2z"/>
<path d="M3080 389 c0 -5 5 -7 10 -4 6 3 10 8 10 11 0 2 -4 4 -10 4 -5 0 -10
-5 -10 -11z"/>
<path d="M3240 380 c-24 -24 -25 -38 -4 -68 15 -22 38 -27 68 -16 29 11 16 23
-19 17 -43 -7 -46 10 -5 27 38 16 45 27 30 45 -17 21 -46 19 -70 -5z m60 -9
c0 -5 -13 -14 -30 -20 -31 -10 -39 -4 -18 17 14 14 48 16 48 3z"/>
<path d="M3119 376 c5 -6 11 -22 14 -36 3 -19 5 -17 6 11 1 25 -3 36 -14 36
-9 0 -11 -4 -6 -11z"/>
<path d="M2725 366 c3 -12 -3 -29 -17 -45 l-22 -26 28 26 c24 23 26 30 16 45
-11 18 -11 18 -5 0z"/>
<path d="M3047 360 c-3 -11 -1 -20 4 -20 5 0 9 9 9 20 0 11 -2 20 -4 20 -2 0
-6 -9 -9 -20z"/>
<path d="M2355 361 c-3 -5 -1 -12 5 -16 5 -3 10 1 10 9 0 18 -6 21 -15 7z"/>
<path d="M2580 341 c13 -25 49 -51 70 -51 8 1 0 7 -18 15 -19 8 -36 24 -39 35
-3 11 -9 20 -15 20 -5 0 -4 -9 2 -19z"/>
<path d="M4429 334 c-14 -15 -31 -23 -41 -21 -10 3 -16 1 -12 -4 8 -13 54 -11
54 3 0 6 7 20 17 30 25 28 10 21 -18 -8z"/>
<path d="M1173 323 c9 -2 25 -2 35 0 9 3 1 5 -18 5 -19 0 -27 -2 -17 -5z"/>
<path d="M2361 318 c-1 -11 -9 -18 -23 -19 -21 -1 -21 -2 -3 -6 11 -3 23 -10
26 -15 10 -16 17 15 8 37 -6 17 -8 17 -8 3z"/>
<path d="M2460 326 c0 -2 7 -7 16 -10 8 -3 12 -2 9 4 -6 10 -25 14 -25 6z"/>
<path d="M3055 310 c21 -24 26 -25 19 -6 -3 8 -13 17 -22 21 -13 5 -13 2 3
-15z"/>
<path d="M4448 303 c7 -3 16 -2 19 1 4 3 -2 6 -13 5 -11 0 -14 -3 -6 -6z"/>
<path d="M1155 280 c3 -6 20 -10 37 -10 38 0 34 5 -10 13 -21 4 -31 3 -27 -3z"/>
<path d="M2570 280 c0 -5 5 -10 11 -10 5 0 7 5 4 10 -3 6 -8 10 -11 10 -2 0
-4 -4 -4 -10z"/>
<path d="M3125 270 c-3 -5 -1 -10 4 -10 6 0 11 5 11 10 0 6 -2 10 -4 10 -3 0
-8 -4 -11 -10z"/>
<path d="M1157 243 c-3 -5 8 -8 23 -8 15 0 26 3 23 8 -2 4 -13 7 -23 7 -10 0
-21 -3 -23 -7z"/>
<path d="M4496 241 c-3 -5 2 -8 11 -7 10 0 20 -9 24 -24 6 -21 7 -22 8 -5 2
32 -30 58 -43 36z"/>
<path d="M4443 215 c-3 -9 -3 -18 -1 -21 3 -3 8 4 11 16 6 23 -1 27 -10 5z"/>
<path d="M2355 201 c-3 -5 -1 -12 5 -16 5 -3 10 1 10 9 0 18 -6 21 -15 7z"/>
<path d="M2458 183 c7 -3 16 -2 19 1 4 3 -2 6 -13 5 -11 0 -14 -3 -6 -6z"/>
<path d="M2508 183 c6 -2 18 -2 25 0 6 3 1 5 -13 5 -14 0 -19 -2 -12 -5z"/>
<path d="M2868 183 c6 -2 18 -2 25 0 6 3 1 5 -13 5 -14 0 -19 -2 -12 -5z"/>
<path d="M4475 180 c-3 -5 -1 -10 4 -10 6 0 11 5 11 10 0 6 -2 10 -4 10 -3 0
-8 -4 -11 -10z"/>
<path d="M4503 153 c-18 -9 -33 -20 -33 -24 0 -4 12 -1 28 7 15 7 33 14 40 14
6 0 12 5 12 10 0 13 -9 12 -47 -7z"/>
<path d="M1124 148 c-3 -4 -4 -8 -2 -9 27 -5 68 -5 68 1 0 11 -60 18 -66 8z"/>
<path d="M2360 153 c0 -7 -10 -14 -22 -14 -21 -1 -21 -2 -3 -6 11 -3 23 -10
26 -15 4 -5 9 -3 12 5 3 7 1 20 -4 28 -6 10 -9 10 -9 2z"/>
<path d="M2398 153 c7 -3 16 -2 19 1 4 3 -2 6 -13 5 -11 0 -14 -3 -6 -6z"/>
<path d="M2566 151 c-4 -5 3 -7 13 -4 13 3 21 -1 24 -14 4 -15 5 -14 6 5 1 16
-5 22 -18 22 -11 0 -22 -4 -25 -9z"/>
<path d="M2933 153 c9 -2 23 -2 30 0 6 3 -1 5 -18 5 -16 0 -22 -2 -12 -5z"/>
<path d="M2447 118 c2 -5 10 -8 18 -8 8 0 16 3 18 8 3 4 -5 7 -18 7 -13 0 -21
-3 -18 -7z"/>
<path d="M1141 106 c2 -2 24 -6 49 -9 30 -4 38 -3 25 3 -19 8 -83 14 -74 6z"/>
<path d="M4373 45 c0 -27 2 -38 4 -22 2 15 2 37 0 50 -2 12 -4 0 -4 -28z"/>
<path d="M4050 38 c0 -49 5 -47 13 5 3 20 2 37 -4 37 -5 0 -9 -19 -9 -42z"/>
<path d="M4120 59 c-7 -11 -9 -23 -6 -27 3 -3 7 1 7 9 1 8 5 1 9 -16 7 -28 8
-27 9 13 1 47 -3 52 -19 21z"/>
<path d="M4468 68 c-2 -7 -1 -26 2 -43 l6 -30 5 32 c6 34 -4 66 -13 41z"/>
<path d="M4638 73 c7 -3 16 -2 19 1 4 3 -2 6 -13 5 -11 0 -14 -3 -6 -6z"/>
<path d="M4720 76 c0 -2 7 -6 15 -10 8 -3 15 -1 15 4 0 6 -7 10 -15 10 -8 0
-15 -2 -15 -4z"/>
<path d="M4782 68 c-13 -13 -16 -54 -4 -61 4 -3 7 9 7 26 0 22 5 32 15 32 10
0 15 -10 15 -32 0 -17 3 -29 7 -26 10 5 10 35 2 57 -7 19 -25 21 -42 4z"/>
<path d="M4860 76 c0 -2 7 -7 16 -10 8 -3 12 -2 9 4 -6 10 -25 14 -25 6z"/>
<path d="M4930 76 c0 -2 7 -7 16 -10 8 -3 12 -2 9 4 -6 10 -25 14 -25 6z"/>
<path d="M5025 70 c-4 -6 -4 -14 -1 -17 3 -4 6 -1 6 5 0 15 36 16 43 2 3 -6 4
-5 3 2 -3 17 -42 23 -51 8z"/>
<path d="M5601 38 c1 -24 3 -35 6 -25 2 9 13 17 23 17 10 0 21 4 24 9 3 4 -6
6 -19 3 -19 -3 -25 0 -25 13 0 13 6 16 25 13 13 -3 22 -1 19 3 -3 5 -16 9 -30
9 -22 0 -24 -4 -23 -42z"/>
<path d="M6402 73 c11 -3 18 -17 21 -41 l4 -37 1 37 c1 25 7 38 20 41 9 3 -1
5 -23 5 -22 0 -32 -2 -23 -5z"/>
<path d="M6940 55 c0 -23 4 -26 28 -23 19 2 27 9 27 23 0 14 -8 21 -27 23 -24
3 -28 0 -28 -23z m50 0 c0 -8 -9 -15 -20 -15 -11 0 -20 7 -20 15 0 8 9 15 20
15 11 0 20 -7 20 -15z"/>
<path d="M7531 66 c-12 -14 -2 -27 32 -39 27 -10 20 2 -9 13 -28 11 -23 35 7
27 11 -3 17 -1 13 4 -8 13 -30 11 -43 -5z"/>
<path d="M61 54 c0 -11 3 -14 6 -6 3 7 2 16 -1 19 -3 4 -6 -2 -5 -13z"/>
<path d="M1147 58 c2 -5 13 -8 23 -8 10 0 21 3 23 8 3 4 -8 7 -23 7 -15 0 -26
-3 -23 -7z"/>
<path d="M4166 51 c-3 -5 3 -7 14 -4 11 3 20 1 20 -5 0 -5 -9 -12 -20 -15 -11
-3 -20 -11 -19 -19 0 -10 2 -10 6 0 6 16 30 16 37 0 3 -7 4 0 3 17 -2 30 -29
47 -41 26z"/>
<path d="M4230 52 c0 -6 9 -8 19 -5 15 4 21 -1 24 -21 4 -26 4 -26 3 1 -1 21
-7 29 -23 31 -13 2 -23 -1 -23 -6z"/>
<path d="M4334 46 c-3 -8 -4 -23 -1 -33 3 -12 5 -9 6 9 0 14 7 29 14 31 9 4 9
6 -1 6 -7 1 -15 -5 -18 -13z"/>
<path d="M4406 51 c-3 -5 3 -7 14 -4 11 3 20 1 20 -5 0 -5 -9 -12 -20 -15 -11
-3 -20 -11 -19 -19 0 -10 2 -10 6 0 6 16 30 16 37 0 3 -7 4 0 3 17 -2 30 -29
47 -41 26z"/>
<path d="M4514 48 c-4 -7 -3 -8 4 -4 7 4 17 4 24 0 8 -5 6 -10 -8 -15 -17 -7
-17 -8 5 -8 17 -1 22 3 17 15 -3 9 -6 18 -6 20 0 9 -29 3 -36 -8z"/>
<path d="M4638 53 c7 -3 16 -2 19 1 4 3 -2 6 -13 5 -11 0 -14 -3 -6 -6z"/>
<path d="M5104 46 c-3 -8 -4 -23 -1 -33 3 -11 5 -8 6 10 1 22 5 28 19 25 10
-2 17 -12 16 -26 0 -16 2 -20 10 -12 7 7 7 16 0 28 -15 23 -43 27 -50 8z"/>
<path d="M5174 46 c-3 -8 -4 -23 -1 -33 3 -11 5 -8 6 10 1 22 5 28 19 25 10
-2 17 -12 16 -26 0 -16 2 -20 10 -12 7 7 7 16 0 28 -15 23 -43 27 -50 8z"/>
<path d="M5251 47 c-13 -13 -14 -34 -3 -41 5 -3 8 5 8 17 -1 13 5 22 14 22 9
0 15 -9 14 -22 0 -13 3 -23 8 -23 4 0 8 13 8 28 0 30 -27 41 -49 19z"/>
<path d="M5352 48 c-15 -15 -15 -35 0 -44 7 -4 8 -3 4 4 -5 8 2 12 18 12 14 0
26 4 26 8 0 9 -21 32 -30 32 -3 0 -11 -5 -18 -12z m33 -8 c3 -5 -3 -10 -15
-10 -12 0 -18 5 -15 10 3 6 10 10 15 10 5 0 12 -4 15 -10z"/>
<path d="M5686 51 c-3 -5 2 -7 13 -4 15 4 21 -1 24 -21 4 -26 4 -26 3 1 -1 28
-28 44 -40 24z"/>
<path d="M5846 51 c-3 -5 2 -7 13 -4 15 4 21 -1 24 -21 4 -26 4 -26 3 1 -1 28
-28 44 -40 24z"/>
<path d="M5910 52 c0 -6 9 -8 19 -5 15 4 21 -1 24 -21 4 -26 4 -26 3 1 -1 21
-7 29 -23 31 -13 2 -23 -1 -23 -6z"/>
<path d="M6016 51 c-3 -5 2 -7 13 -4 15 4 21 -1 24 -21 4 -26 4 -26 3 1 -1 28
-28 44 -40 24z"/>
<path d="M6082 48 c-15 -15 -15 -35 0 -44 7 -4 8 -3 4 4 -5 8 2 12 18 12 14 0
26 4 26 9 0 4 -12 6 -27 4 -27 -4 -27 -4 -9 11 11 9 15 16 10 16 -6 0 -15 -5
-22 -12z"/>
<path d="M6145 50 c-8 -13 3 -30 20 -30 7 0 16 -6 18 -12 4 -10 6 -10 6 0 1 8
-8 16 -19 19 -11 3 -20 10 -20 15 0 6 9 8 20 5 11 -3 18 -1 14 4 -7 12 -31 11
-39 -1z"/>
<path d="M6472 48 c-15 -15 -15 -35 0 -44 7 -4 8 -3 4 4 -5 8 2 12 18 12 14 0
26 4 26 8 0 9 -21 32 -30 32 -3 0 -11 -5 -18 -12z m33 -8 c3 -5 -3 -10 -15
-10 -12 0 -18 5 -15 10 3 6 10 10 15 10 5 0 12 -4 15 -10z"/>
<path d="M6532 30 c0 -19 2 -27 5 -17 2 9 2 25 0 35 -3 9 -5 1 -5 -18z"/>
<path d="M6572 30 c0 -19 2 -27 5 -17 2 9 2 25 0 35 -3 9 -5 1 -5 -18z"/>
<path d="M6599 52 c6 -2 11 -16 12 -30 l1 -27 7 25 c4 15 14 24 24 24 9 -1 17
2 17 6 0 4 -16 8 -36 7 -20 -1 -32 -3 -25 -5z"/>
<path d="M6685 49 c-4 -6 -4 -13 -1 -16 3 -4 6 -1 6 6 0 8 8 11 20 8 11 -3 18
-1 14 4 -7 12 -31 11 -39 -2z"/>
<path d="M7012 30 c0 -19 2 -27 5 -17 2 9 2 25 0 35 -3 9 -5 1 -5 -18z"/>
<path d="M7160 56 c0 -2 7 -7 16 -10 8 -3 12 -2 9 4 -6 10 -25 14 -25 6z"/>
<path d="M7214 46 c-3 -8 -4 -23 -1 -33 3 -11 5 -7 6 11 1 23 5 27 21 23 11
-3 18 -1 14 4 -8 14 -34 11 -40 -5z"/>
<path d="M7271 58 c-1 -4 4 -19 10 -35 10 -27 11 -27 25 -9 8 11 14 27 13 35
0 9 -5 3 -11 -13 l-11 -29 -13 29 c-7 16 -13 26 -13 22z"/>
<path d="M7607 54 c-4 -4 -7 -19 -6 -33 0 -14 3 -20 6 -13 2 6 14 12 25 12 13
0 18 6 16 17 -3 19 -29 29 -41 17z m33 -14 c0 -5 -7 -10 -15 -10 -8 0 -15 5
-15 10 0 6 7 10 15 10 8 0 15 -4 15 -10z"/>
<path d="M7661 25 c1 -29 1 -29 8 -5 4 14 13 25 21 25 8 0 17 -11 21 -25 6
-20 7 -21 8 -5 1 29 -12 44 -37 42 -18 -1 -22 -7 -21 -32z"/>
<path d="M7742 48 c-14 -14 -16 -35 -4 -42 5 -3 8 5 8 17 -1 15 5 22 17 21 9
-1 17 2 17 7 0 13 -24 11 -38 -3z"/>
<path d="M4070 47 c0 -5 5 -17 10 -28 12 -21 30 -26 30 -7 0 6 -3 8 -7 4 -4
-3 -13 4 -20 16 -7 13 -12 19 -13 15z"/>
<path d="M4943 42 c-9 -5 -6 -12 10 -21 19 -13 21 -12 10 1 -7 8 -10 18 -6 21
9 9 1 8 -14 -1z"/>
<path d="M5782 25 c0 -17 2 -22 5 -12 2 9 2 23 0 30 -3 6 -5 -1 -5 -18z"/>
<path d="M4724 18 l-19 -23 23 19 c12 11 22 21 22 23 0 8 -8 2 -26 -19z"/>
<path d="M4864 18 l-19 -23 23 19 c12 11 22 21 22 23 0 8 -8 2 -26 -19z"/>
<path d="M5056 32 c6 -4 14 -14 17 -22 4 -10 6 -8 6 8 1 15 -5 22 -16 22 -11
0 -14 -3 -7 -8z"/>
<path d="M5751 24 c0 -11 3 -14 6 -6 3 7 2 16 -1 19 -3 4 -6 -2 -5 -13z"/>
<path d="M1158 23 c7 -3 16 -2 19 1 4 3 -2 6 -13 5 -11 0 -14 -3 -6 -6z"/>
<path d="M5811 14 c0 -11 3 -14 6 -6 3 7 2 16 -1 19 -3 4 -6 -2 -5 -13z"/>
<path d="M6712 16 c7 -8 15 -12 17 -11 5 6 -10 25 -20 25 -5 0 -4 -6 3 -14z"/>
<path d="M7093 20 c3 -16 21 -14 25 2 3 10 2 10 -6 -1 -7 -9 -11 -10 -15 -2
-4 7 -5 8 -4 1z"/>
<path d="M7147 23 c-4 -3 -7 -11 -7 -17 0 -7 3 -7 8 0 4 7 16 14 27 17 19 5
19 5 -1 6 -11 0 -24 -2 -27 -6z"/>
<path d="M4638 13 c7 -3 16 -2 19 1 4 3 -2 6 -13 5 -11 0 -14 -3 -6 -6z"/>
<path d="M7520 10 c0 -5 5 -10 11 -10 5 0 7 5 4 10 -3 6 -8 10 -11 10 -2 0 -4
-4 -4 -10z"/>
</g>
</svg>
